<?xml version="1.0" encoding="utf-8"?>
<!-- Generator: Adobe Illustrator 23.0.1, SVG Export Plug-In . SVG Version: 6.00 Build 0)  -->
<svg version="1.1" id="Layer_1" xmlns="http://www.w3.org/2000/svg" xmlns:xlink="http://www.w3.org/1999/xlink" x="0px" y="0px"
	 viewBox="0 0 38 38" style="enable-background:new 0 0 38 38;" xml:space="preserve">
<style type="text/css">
	.st0{fill:url(#SVGID_1_);}
	.st1{fill:url(#SVGID_2_);}
	.st2{fill:url(#SVGID_3_);}
	.st3{fill:url(#SVGID_4_);}
	.st4{fill:url(#SVGID_5_);}
	.st5{fill:url(#SVGID_6_);}
</style>
<g>
	<g>
		<g>
			<g>
				<linearGradient id="SVGID_1_" gradientUnits="userSpaceOnUse" x1="4.705" y1="19" x2="33.295" y2="19">
					<stop  offset="0" style="stop-color:#FBB333"/>
					<stop  offset="0.4842" style="stop-color:#F7931E"/>
					<stop  offset="0.9674" style="stop-color:#ED1C24"/>
				</linearGradient>
				<path class="st0" d="M4.7,4.27v29.45c0,1.07,0.99,1.94,2.22,1.94h6.65c0.63,0,1.22-0.28,1.54-0.74c0.84-1.19,2.3-1.9,3.89-1.9
					s3.05,0.71,3.89,1.9c0.32,0.46,0.91,0.74,1.54,0.74h6.65c1.22,0,2.22-0.87,2.22-1.94V4.27c0-1.07-0.99-1.94-2.22-1.94H6.92
					C5.7,2.34,4.7,3.21,4.7,4.27z M31.08,3.57c0.44,0,0.8,0.32,0.8,0.7v21.57h-0.05c-0.39,0-0.71,0.28-0.71,0.62
					s0.32,0.62,0.71,0.62h0.05v6.64c0,0.39-0.36,0.7-0.8,0.7h-6.65c-0.14,0-0.27-0.06-0.34-0.15c-1.1-1.56-3-2.49-5.09-2.49
					s-3.99,0.93-5.09,2.49c-0.07,0.09-0.2,0.15-0.34,0.15H6.92c-0.44,0-0.8-0.32-0.8-0.7v-6.64h0.05c0.39,0,0.71-0.28,0.71-0.62
					s-0.32-0.62-0.71-0.62H6.12V4.27c0-0.39,0.36-0.7,0.8-0.7H31.08z"/>
			</g>
		</g>
	</g>
	<g>
		<g>
			<g>
				<linearGradient id="SVGID_2_" gradientUnits="userSpaceOnUse" x1="17.5389" y1="26.4649" x2="20.4614" y2="26.4649">
					<stop  offset="0" style="stop-color:#FBB333"/>
					<stop  offset="0.4842" style="stop-color:#F7931E"/>
					<stop  offset="0.9674" style="stop-color:#ED1C24"/>
				</linearGradient>
				<path class="st1" d="M17.54,26.46c0,0.34,0.32,0.62,0.71,0.62h1.51c0.39,0,0.71-0.28,0.71-0.62s-0.32-0.62-0.71-0.62h-1.51
					C17.86,25.85,17.54,26.12,17.54,26.46z"/>
			</g>
		</g>
	</g>
	<g>
		<g>
			<g>
				<linearGradient id="SVGID_3_" gradientUnits="userSpaceOnUse" x1="8.4799" y1="26.4649" x2="11.4023" y2="26.4649">
					<stop  offset="0" style="stop-color:#FBB333"/>
					<stop  offset="0.4842" style="stop-color:#F7931E"/>
					<stop  offset="0.9674" style="stop-color:#ED1C24"/>
				</linearGradient>
				<path class="st2" d="M8.48,26.46c0,0.34,0.32,0.62,0.71,0.62h1.51c0.39,0,0.71-0.28,0.71-0.62s-0.32-0.62-0.71-0.62H9.19
					C8.8,25.85,8.48,26.12,8.48,26.46z"/>
			</g>
		</g>
	</g>
	<g>
		<g>
			<g>
				<linearGradient id="SVGID_4_" gradientUnits="userSpaceOnUse" x1="13.0092" y1="26.4649" x2="15.9317" y2="26.4649">
					<stop  offset="0" style="stop-color:#FBB333"/>
					<stop  offset="0.4842" style="stop-color:#F7931E"/>
					<stop  offset="0.9674" style="stop-color:#ED1C24"/>
				</linearGradient>
				<path class="st3" d="M13.01,26.46c0,0.34,0.32,0.62,0.71,0.62h1.51c0.39,0,0.71-0.28,0.71-0.62s-0.32-0.62-0.71-0.62h-1.51
					C13.33,25.85,13.01,26.12,13.01,26.46z"/>
			</g>
		</g>
	</g>
	<g>
		<g>
			<g>
				<linearGradient id="SVGID_5_" gradientUnits="userSpaceOnUse" x1="22.0684" y1="26.4649" x2="24.9909" y2="26.4649">
					<stop  offset="0" style="stop-color:#FBB333"/>
					<stop  offset="0.4842" style="stop-color:#F7931E"/>
					<stop  offset="0.9674" style="stop-color:#ED1C24"/>
				</linearGradient>
				<path class="st4" d="M22.07,26.46c0,0.34,0.32,0.62,0.71,0.62h1.51c0.39,0,0.71-0.28,0.71-0.62s-0.32-0.62-0.71-0.62h-1.51
					C22.38,25.85,22.07,26.12,22.07,26.46z"/>
			</g>
		</g>
	</g>
	<g>
		<g>
			<g>
				<linearGradient id="SVGID_6_" gradientUnits="userSpaceOnUse" x1="26.5979" y1="26.4649" x2="29.5203" y2="26.4649">
					<stop  offset="0" style="stop-color:#FBB333"/>
					<stop  offset="0.4842" style="stop-color:#F7931E"/>
					<stop  offset="0.9674" style="stop-color:#ED1C24"/>
				</linearGradient>
				<path class="st5" d="M26.6,26.46c0,0.34,0.32,0.62,0.71,0.62h1.51c0.39,0,0.71-0.28,0.71-0.62s-0.32-0.62-0.71-0.62H27.3
					C26.91,25.85,26.6,26.12,26.6,26.46z"/>
			</g>
		</g>
	</g>
</g>
</svg>
