<?xml version="1.0" encoding="utf-8"?>
<!-- Generator: Adobe Illustrator 23.0.1, SVG Export Plug-In . SVG Version: 6.00 Build 0)  -->
<svg version="1.1" id="Layer_1" xmlns="http://www.w3.org/2000/svg" xmlns:xlink="http://www.w3.org/1999/xlink" x="0px" y="0px"
	 viewBox="0 0 40 50" style="enable-background:new 0 0 40 50;" xml:space="preserve">
<style type="text/css">
	.st0{fill:#f79959;}
</style>
<g>
	<path class="st0" d="M30.91,20.3v-3.83c0-5.45-4.89-9.89-10.91-9.89c-6.02,0-10.91,4.43-10.91,9.89v3.83C6.77,20.7,5,22.72,5,25.16
		v13.32c0,2.72,2.21,4.93,4.93,4.93h20.15c2.72,0,4.93-2.21,4.93-4.93V25.15C35,22.72,33.23,20.7,30.91,20.3L30.91,20.3z
		 M10.45,16.48c0-4.7,4.29-8.52,9.55-8.52c5.26,0,9.54,3.82,9.54,8.52v3.75H10.45V16.48z M33.64,38.48c0,1.96-1.6,3.57-3.57,3.57
		H9.93c-1.96,0-3.56-1.6-3.56-3.57V25.15c0-1.96,1.6-3.56,3.56-3.56h20.15c1.96,0,3.57,1.6,3.57,3.56V38.48z M33.64,38.48"/>
	<path class="st0" d="M20,25.68c-1.51,0-2.73,1.23-2.73,2.73v4.09c0,1.51,1.23,2.73,2.73,2.73c1.5,0,2.73-1.23,2.73-2.73v-4.09
		C22.73,26.91,21.5,25.68,20,25.68L20,25.68z M21.36,32.5c0,0.75-0.61,1.37-1.36,1.37c-0.75,0-1.37-0.61-1.37-1.37v-4.09
		c0-0.75,0.61-1.37,1.37-1.37c0.75,0,1.36,0.61,1.36,1.37V32.5z M21.36,32.5"/>
</g>
</svg>
