<?xml version="1.0" encoding="utf-8"?>
<!-- Generator: Adobe Illustrator 23.0.1, SVG Export Plug-In . SVG Version: 6.00 Build 0)  -->
<svg version="1.1" id="Layer_1" xmlns="http://www.w3.org/2000/svg" xmlns:xlink="http://www.w3.org/1999/xlink" x="0px" y="0px"
	 viewBox="0 0 40 40" style="enable-background:new 0 0 40 40;" xml:space="preserve">
<style type="text/css">
	.st0{fill:url(#SVGID_1_);}
	.st1{fill:url(#SVGID_2_);}
</style>
<g>
	<g>
		<g>
			<linearGradient id="SVGID_1_" gradientUnits="userSpaceOnUse" x1="-1.8458" y1="-23.9181" x2="82.3723" y2="145.391">
				<stop  offset="0" style="stop-color:#FBB333"/>
				<stop  offset="0.4842" style="stop-color:#F7931E"/>
				<stop  offset="1" style="stop-color:#ED1C24"/>
			</linearGradient>
			<path class="st0" d="M20,3.31C10.8,3.31,3.31,10.8,3.31,20S10.8,36.69,20,36.69S36.69,29.2,36.69,20S29.2,3.31,20,3.31z
				 M20,35.41C11.5,35.41,4.59,28.5,4.59,20S11.5,4.59,20,4.59S35.41,11.5,35.41,20S28.5,35.41,20,35.41z"/>
		</g>
	</g>
	<g>
		<g>
			<linearGradient id="SVGID_2_" gradientUnits="userSpaceOnUse" x1="-0.8814" y1="-24.3978" x2="83.3368" y2="144.9113">
				<stop  offset="0" style="stop-color:#FBB333"/>
				<stop  offset="0.4842" style="stop-color:#F7931E"/>
				<stop  offset="1" style="stop-color:#ED1C24"/>
			</linearGradient>
			<path class="st1" d="M16.58,18.19l2.83-2.83v10.81c0,0.4,0.32,0.72,0.72,0.72c0.4,0,0.72-0.32,0.72-0.72v-10.8l2.83,2.83
				c0.14,0.14,0.32,0.21,0.51,0.21c0.19,0,0.37-0.07,0.51-0.21c0.28-0.28,0.28-0.74,0-1.02l-4.06-4.06c-0.28-0.28-0.74-0.28-1.02,0
				l-4.06,4.06c-0.28,0.28-0.28,0.74,0,1.02C15.83,18.47,16.29,18.47,16.58,18.19z"/>
		</g>
	</g>
</g>
</svg>
