<?xml version="1.0" encoding="utf-8"?>
<!-- Generator: Adobe Illustrator 23.0.1, SVG Export Plug-In . SVG Version: 6.00 Build 0)  -->
<svg version="1.1" id="Layer_1" xmlns="http://www.w3.org/2000/svg" xmlns:xlink="http://www.w3.org/1999/xlink" x="0px" y="0px"
	 viewBox="0 0 185 130" style="enable-background:new 0 0 185 130;" xml:space="preserve">
<style type="text/css">
	.st0{clip-path:url(#SVGID_2_);}
	.st1{fill:#8E8E8E;}
</style>
<g>
	<defs>
		<path id="SVGID_1_" d="M307.26,130H11.74C5.25,130,0,124.75,0,118.26V0.74C0-5.75,5.25-11,11.74-11h295.53
			C313.75-11,319-5.75,319,0.74v117.53C319,124.75,313.75,130,307.26,130z"/>
	</defs>
	<clipPath id="SVGID_2_">
		<use xlink:href="#SVGID_1_"  style="overflow:visible;"/>
	</clipPath>
	<g class="st0">
		<path class="st1" d="M112.61,7.3L3.32,57.62c-7.18,3.32-10.32,11.81-7.02,19l1.2,2.6l-7.81,3.59c-7.18,3.32-10.32,11.81-7.02,19
			l33.54,72.86c3.32,7.18,11.81,10.32,19,7.02l109.29-50.32c7.18-3.32,10.32-11.81,7.02-19l-1.2-2.6l7.81-3.59
			c7.18-3.32,10.32-11.81,7.02-19l-33.54-72.86C128.3,7.15,119.8,4.01,112.61,7.3z M-12.12,99.42c-1.98-4.31-0.1-9.42,4.21-11.4
			L101.38,37.7c4.31-1.98,9.42-0.1,11.4,4.21l2.4,5.2l-124.9,57.5L-12.12,99.42z M-7.33,109.83l124.9-57.5l2.4,5.2l-124.9,57.5
			L-7.33,109.83z M146.33,114.78c1.98,4.31,0.1,9.42-4.21,11.4L32.82,176.49c-4.31,1.98-9.42,0.1-11.4-4.21l-23.96-52.04l124.9-57.5
			L146.33,114.78z M159.95,89.58c1.98,4.31,0.1,9.42-4.21,11.4l-7.81,3.59l-29.95-65.05c-3.32-7.18-11.81-10.32-19-7.02L2.71,76.83
			l-1.2-2.6c-1.98-4.31-0.1-9.42,4.21-11.4l109.29-50.32c4.31-1.98,9.42-0.1,11.4,4.21L159.95,89.58z"/>
		<path class="st1" d="M114.45,101.07c-3,1.39-5.24,4.01-6.15,7.19c-4.36-1.98-9.48-1.04-12.86,2.36
			c-3.37,3.39-4.28,8.52-2.28,12.87c2,4.35,6.49,6.99,11.26,6.63c4.77-0.36,8.82-3.64,10.15-8.24c4.81,2.16,10.48,0.74,13.71-3.42
			c3.23-4.17,3.2-10-0.08-14.13C124.92,100.2,119.24,98.85,114.45,101.07z M106.03,123.87c-2.87,1.32-6.28,0.07-7.6-2.81
			c-1.32-2.87-0.07-6.28,2.81-7.6s6.28-0.07,7.6,2.81S108.9,122.54,106.03,123.87z M121.64,116.68c-2.87,1.32-6.28,0.07-7.6-2.81
			s-0.07-6.28,2.81-7.6c2.87-1.32,6.28-0.07,7.6,2.81S124.51,115.36,121.64,116.68z"/>
	</g>
</g>
</svg>
