<?xml version="1.0" encoding="utf-8"?>
<!-- Generator: Adobe Illustrator 23.0.1, SVG Export Plug-In . SVG Version: 6.00 Build 0)  -->
<svg version="1.1" id="Layer_1" xmlns="http://www.w3.org/2000/svg" xmlns:xlink="http://www.w3.org/1999/xlink" x="0px" y="0px"
	 viewBox="0 0 40 40" style="enable-background:new 0 0 40 40;" xml:space="preserve">
<style type="text/css">
	.st0{fill:url(#SVGID_1_);}
	.st1{fill:url(#SVGID_2_);}
</style>
<g>
	<linearGradient id="SVGID_1_" gradientUnits="userSpaceOnUse" x1="4.8827" y1="18.8211" x2="42.1191" y2="25.0757">
		<stop  offset="0" style="stop-color:#FBB333"/>
		<stop  offset="0.4842" style="stop-color:#F7931E"/>
		<stop  offset="1" style="stop-color:#ED1C24"/>
	</linearGradient>
	<path class="st0" d="M9.17,13.27h1.15c-0.22,0.45-0.45,0.88-0.7,1.29h3.88v0.86H9.04c-0.55,0.77-1.16,1.45-1.83,2.06
		c-0.18-0.22-0.42-0.46-0.71-0.74C7.62,15.75,8.51,14.6,9.17,13.27z M7.55,18.8h1.01v7.93H7.55V18.8z M8.32,17.29l0.67-0.59
		c0.57,0.49,1.09,1,1.57,1.53l-0.77,0.7C9.37,18.39,8.87,17.84,8.32,17.29z M11.05,17.38c-0.33-0.46-0.69-0.91-1.08-1.35l0.71-0.52
		c0.41,0.38,0.8,0.8,1.18,1.26L11.05,17.38z M10.45,19.57h5.76v5.11h-4.8v0.55h-0.96V19.57z M11.34,18.33v-0.86h7.83v7.48
		c0,1.18-0.58,1.76-1.75,1.76c-0.54,0-1.09-0.01-1.65-0.04c-0.04-0.26-0.1-0.61-0.21-1.04c0.66,0.05,1.25,0.08,1.79,0.08
		s0.81-0.27,0.81-0.81v-6.58H11.34z M15.25,20.39h-3.84v1.33h3.84V20.39z M11.41,23.86h3.84v-1.35h-3.84V23.86z M15.1,13.27h1.15
		c-0.21,0.45-0.44,0.88-0.68,1.29h4.36v0.86h-4.87c-0.41,0.64-0.85,1.24-1.31,1.82c-0.25-0.17-0.54-0.36-0.89-0.57
		C13.72,15.68,14.47,14.55,15.1,13.27z M16.86,17.4c-0.17-0.27-0.54-0.74-1.11-1.39l0.71-0.51c0.49,0.47,0.89,0.9,1.2,1.29
		L16.86,17.4z"/>
	<linearGradient id="SVGID_2_" gradientUnits="userSpaceOnUse" x1="5.2435" y1="16.6731" x2="42.4799" y2="22.9276">
		<stop  offset="0" style="stop-color:#FBB333"/>
		<stop  offset="0.4842" style="stop-color:#F7931E"/>
		<stop  offset="1" style="stop-color:#ED1C24"/>
	</linearGradient>
	<path class="st1" d="M19.73,19.88c1.32-1.93,2.31-4.13,2.95-6.6l1.04,0.3c-0.36,1.16-0.76,2.25-1.2,3.27v9.84h-1.01v-7.78
		c-0.41,0.74-0.85,1.44-1.31,2.09C20.06,20.63,19.91,20.26,19.73,19.88z M33.5,23.21c-0.31,0.37-0.58,0.71-0.81,1.01
		c-1.82-1.4-3.16-3.78-4.02-7.12v5.77h2.01v0.98h-2.01v2.86h-1.01v-2.86h-2.01v-0.98h2.01v-5.77h-0.03
		c-0.85,3.15-2.24,5.6-4.19,7.34c-0.21-0.26-0.45-0.55-0.72-0.86c1.76-1.61,3.08-3.77,3.95-6.48h-3.21v-0.98h4.21v-2.79h1.01v2.79
		h4.36v0.98h-3.48C30.43,19.93,31.74,21.97,33.5,23.21z"/>
</g>
</svg>
