<?xml version="1.0" encoding="utf-8"?>
<!-- Generator: Adobe Illustrator 23.0.1, SVG Export Plug-In . SVG Version: 6.00 Build 0)  -->
<svg version="1.1" id="Layer_1" xmlns="http://www.w3.org/2000/svg" xmlns:xlink="http://www.w3.org/1999/xlink" x="0px" y="0px"
	 viewBox="0 0 55 55" style="enable-background:new 0 0 55 55;" xml:space="preserve">
<style type="text/css">
	.st0{fill:#FFFFFF;}
</style>
<g>
	<path class="st0" d="M27.5,3.39c-13.23,0-24,10.81-24,24.11s10.77,24.11,24,24.11c13.23,0,24-10.81,24-24.11S40.73,3.39,27.5,3.39
		L27.5,3.39z M27.5,49.75c-12.21,0-22.15-9.98-22.15-22.25c0-12.27,9.94-22.25,22.15-22.25c12.21,0,22.15,9.98,22.15,22.25
		C49.65,39.77,39.71,49.75,27.5,49.75L27.5,49.75z M27.5,49.75"/>
	<path class="st0" d="M27.5,12.67c-0.51,0-0.92,0.42-0.92,0.93v20.39c0,0.52,0.41,0.93,0.92,0.93c0.51,0,0.92-0.41,0.92-0.93V13.59
		C28.42,13.08,28.01,12.67,27.5,12.67L27.5,12.67z M27.5,12.67"/>
	<path class="st0" d="M27.5,37.7c-0.51,0-0.92,0.41-0.92,0.92v1.86c0,0.51,0.41,0.93,0.92,0.93c0.51,0,0.92-0.42,0.92-0.93v-1.86
		C28.42,38.11,28.01,37.7,27.5,37.7L27.5,37.7z M27.5,37.7"/>
</g>
</svg>
