<?xml version="1.0" encoding="utf-8"?>
<!-- Generator: Adobe Illustrator 23.0.1, SVG Export Plug-In . SVG Version: 6.00 Build 0)  -->
<svg version="1.1" id="Layer_1" xmlns="http://www.w3.org/2000/svg" xmlns:xlink="http://www.w3.org/1999/xlink" x="0px" y="0px"
	 viewBox="0 0 25 20" style="enable-background:new 0 0 25 20;" xml:space="preserve">
<style type="text/css">
	.st0{fill:#AAAAAA;}
</style>
<g id="_x37_08-search_x40_2x.png_5_">
	<g>
		<path class="st0" d="M18.36,5.6c-1.07-3.23-4.56-4.99-7.79-3.92S5.58,6.23,6.64,9.47c0.5,1.53,1.55,2.72,2.85,3.44l-2.69,5.34
			c-0.07,0.13-0.01,0.29,0.12,0.36c0.13,0.07,0.29,0.01,0.36-0.12l2.69-5.34c1.36,0.61,2.94,0.74,4.46,0.24
			C17.67,12.32,19.42,8.83,18.36,5.6z M14.27,12.88c-2.95,0.98-6.14-0.63-7.11-3.58c-0.98-2.95,0.63-6.14,3.58-7.11
			c2.95-0.98,6.14,0.63,7.11,3.58C18.82,8.72,17.22,11.9,14.27,12.88z"/>
	</g>
</g>
</svg>
