<?xml version="1.0" encoding="utf-8"?>
<!-- Generator: Adobe Illustrator 23.0.1, SVG Export Plug-In . SVG Version: 6.00 Build 0)  -->
<svg version="1.1" id="Layer_1" xmlns="http://www.w3.org/2000/svg" xmlns:xlink="http://www.w3.org/1999/xlink" x="0px" y="0px"
	 viewBox="0 0 185 130" style="enable-background:new 0 0 185 130;" xml:space="preserve">
<style type="text/css">
	.st0{clip-path:url(#SVGID_2_);}
	.st1{fill:#FFFFFF;}
</style>
<g>
	<defs>
		<path id="SVGID_1_" d="M307.26,130H11.74C5.25,130,0,124.75,0,118.26V0.74C0-5.75,5.25-11,11.74-11h295.53
			C313.75-11,319-5.75,319,0.74v117.53C319,124.75,313.75,130,307.26,130z"/>
	</defs>
	<clipPath id="SVGID_2_">
		<use xlink:href="#SVGID_1_"  style="overflow:visible;"/>
	</clipPath>
	<g class="st0">
		<g>
			<g>
				
					<rect x="67.25" y="122.51" transform="matrix(0.9387 -0.3446 0.3446 0.9387 -38.9347 31.8773)" class="st1" width="5.89" height="5.89"/>
				
					<rect x="63.19" y="111.45" transform="matrix(0.9387 -0.3446 0.3446 0.9387 -35.3702 29.7995)" class="st1" width="5.89" height="5.89"/>
				
					<rect x="78.32" y="118.45" transform="matrix(0.9387 -0.3446 0.3446 0.9387 -36.857 35.4419)" class="st1" width="5.89" height="5.89"/>
				<path class="st1" d="M127.35,41.69c-3.82,1.4-9.1,4.84-11.89,10.37L99.3,8.04c-1.68-4.58-6.76-6.94-11.35-5.25L27.09,25.13
					c-4.58,1.68-6.94,6.76-5.25,11.35l12.19,33.2l-8.3,3.05c-4.58,1.68-6.94,6.76-5.25,11.35l2.03,5.53
					c0.78,2.13,2.29,3.77,4.15,4.76c-0.78,1.95-0.86,4.18-0.08,6.31l2.03,5.53c0.78,2.13,2.29,3.77,4.15,4.76
					c-0.78,1.95-0.86,4.18-0.08,6.31l2.03,5.53c0.78,2.13,2.29,3.77,4.15,4.76c-0.78,1.95-0.86,4.18-0.08,6.31l2.03,5.53
					c1.68,4.58,6.76,6.94,11.35,5.25l8.3-3.05l4.06,11.07c1.68,4.58,6.76,6.94,11.35,5.25l60.86-22.34
					c4.58-1.68,6.94-6.76,5.25-11.35l-22.03-60.01c-1.73-6.09,1.01-12.7,6.8-15.69l33.33,91.17l5.53-2.03l-34.45-94.23
					C130.57,41.92,128.88,41.13,127.35,41.69z M29.12,30.66L89.98,8.32c1.53-0.56,3.22,0.22,3.78,1.75l3.05,8.3L30.42,42.75
					l-3.05-8.3C26.81,32.92,27.6,31.23,29.12,30.66z M40.22,120.77l-2.03-5.53c-0.56-1.53,0.22-3.22,1.75-3.78l8.3-3.05l4.06,11.07
					l-8.3,3.05C42.48,123.08,40.79,122.29,40.22,120.77z M34.13,104.17l-2.03-5.53c-0.56-1.53,0.22-3.22,1.75-3.78l8.3-3.05
					l4.06,11.07l-8.3,3.05C36.39,106.48,34.69,105.7,34.13,104.17z M26.01,82.04c-0.56-1.53,0.22-3.22,1.75-3.78l8.3-3.05
					l4.06,11.07l-8.3,3.05c-1.53,0.56-3.22-0.22-3.78-1.75L26.01,82.04z M50.1,139.12c-1.53,0.56-3.22-0.22-3.78-1.75l-2.03-5.53
					c-0.56-1.53,0.22-3.22,1.75-3.78l8.3-3.05l4.06,11.07L50.1,139.12z M134.67,130.04l-60.86,22.34c-1.53,0.56-3.22-0.22-3.78-1.75
					l-3.05-8.3l66.39-24.37l3.05,8.3C136.98,127.79,136.2,129.48,134.67,130.04z M131.34,112.43L64.95,136.8l-6.09-16.6l-6.09-16.6
					l-6.09-16.6l-6.09-16.6l-8.12-22.13l66.39-24.37L131.34,112.43z"/>
				<path class="st1" d="M71.74,52.69C56.46,58.3,48.62,75.23,54.23,90.51s22.54,23.12,37.82,17.51
					c15.27-5.62,23.1-22.54,17.51-37.82C103.95,54.92,87.02,47.08,71.74,52.69z M90.02,102.49c-12.22,4.49-25.77-1.78-30.26-14.01
					s1.78-25.77,14.01-30.26c12.22-4.47,25.76,1.79,30.26,14.01C108.51,84.45,102.24,98,90.02,102.49z"/>
				<path class="st1" d="M78.85,72.06c1.53-0.56,3.22,0.22,3.78,1.75l5.53-2.03c-1.33-3.61-4.76-5.84-8.41-5.79l-1.19-3.24
					l-5.53,2.03l1.19,3.24c-2.8,2.32-3.99,6.24-2.66,9.86c1.68,4.58,6.76,6.94,11.35,5.25c1.53-0.56,3.22,0.22,3.78,1.75
					s-0.22,3.22-1.75,3.78s-3.22-0.22-3.78-1.75l-5.53,2.03c1.33,3.61,4.76,5.84,8.41,5.79l1.19,3.24l5.53-2.03l-1.19-3.24
					c2.8-2.32,3.99-6.24,2.66-9.86c-1.68-4.58-6.76-6.94-11.35-5.25c-1.53,0.56-3.22-0.22-3.78-1.75
					C76.54,74.31,77.32,72.62,78.85,72.06z"/>
				
					<rect x="90.64" y="32.3" transform="matrix(0.9387 -0.3446 0.3446 0.9387 -6.4152 34.4124)" class="st1" width="5.89" height="5.89"/>
				
					<rect x="94.71" y="43.37" transform="matrix(0.9387 -0.3446 0.3446 0.9387 -9.9797 36.4901)" class="st1" width="5.89" height="5.89"/>
				
					<rect x="79.58" y="36.37" transform="matrix(0.9387 -0.3446 0.3446 0.9387 -8.4929 30.8479)" class="st1" width="5.89" height="5.89"/>
			</g>
		</g>
	</g>
</g>
</svg>
