<?xml version="1.0" encoding="utf-8"?>
<!-- Generator: Adobe Illustrator 23.0.1, SVG Export Plug-In . SVG Version: 6.00 Build 0)  -->
<svg version="1.1" id="Layer_1" xmlns="http://www.w3.org/2000/svg" xmlns:xlink="http://www.w3.org/1999/xlink" x="0px" y="0px"
	 viewBox="0 0 40 40" style="enable-background:new 0 0 40 40;" xml:space="preserve">
<style type="text/css">
	.st0{clip-path:url(#SVGID_2_);fill:#FBB333;}
	.st1{clip-path:url(#SVGID_2_);fill:#F47220;}
	.st2{clip-path:url(#SVGID_2_);fill:#ED1C24;}
	.st3{clip-path:url(#SVGID_2_);fill:#F7951F;}
	.st4{clip-path:url(#SVGID_2_);fill:#F7941F;}
	.st5{clip-path:url(#SVGID_2_);fill:#F7931E;}
	.st6{clip-path:url(#SVGID_2_);fill:#F7921E;}
	.st7{clip-path:url(#SVGID_2_);fill:#F7911E;}
	.st8{clip-path:url(#SVGID_2_);fill:#F7901E;}
	.st9{clip-path:url(#SVGID_2_);fill:#F78F1E;}
	.st10{clip-path:url(#SVGID_2_);fill:#F78E1E;}
	.st11{clip-path:url(#SVGID_2_);fill:#F68D1E;}
	.st12{clip-path:url(#SVGID_2_);fill:#F68C1E;}
	.st13{clip-path:url(#SVGID_2_);fill:#F68B1E;}
	.st14{clip-path:url(#SVGID_2_);fill:#F68A1E;}
	.st15{clip-path:url(#SVGID_2_);fill:#F6891F;}
	.st16{clip-path:url(#SVGID_2_);fill:#F6881F;}
	.st17{clip-path:url(#SVGID_2_);fill:#F6871F;}
	.st18{clip-path:url(#SVGID_2_);fill:#F6861F;}
	.st19{clip-path:url(#SVGID_2_);fill:#F6851F;}
	.st20{clip-path:url(#SVGID_2_);fill:#F6841F;}
	.st21{clip-path:url(#SVGID_2_);fill:#F6831F;}
	.st22{clip-path:url(#SVGID_2_);fill:#F6821F;}
	.st23{clip-path:url(#SVGID_2_);fill:#F5811F;}
	.st24{clip-path:url(#SVGID_2_);fill:#F5801F;}
	.st25{clip-path:url(#SVGID_2_);fill:#F57F1F;}
	.st26{clip-path:url(#SVGID_2_);fill:#F57E1F;}
	.st27{clip-path:url(#SVGID_2_);fill:#F57D1F;}
	.st28{clip-path:url(#SVGID_2_);fill:#F57C1F;}
	.st29{clip-path:url(#SVGID_2_);fill:#F57B1F;}
	.st30{clip-path:url(#SVGID_2_);fill:#F57A1F;}
	.st31{clip-path:url(#SVGID_2_);fill:#F5791F;}
	.st32{clip-path:url(#SVGID_2_);fill:#F5781F;}
	.st33{clip-path:url(#SVGID_2_);fill:#F5771F;}
	.st34{clip-path:url(#SVGID_2_);fill:#F5761F;}
	.st35{clip-path:url(#SVGID_2_);fill:#F47520;}
	.st36{clip-path:url(#SVGID_2_);fill:#F47420;}
	.st37{clip-path:url(#SVGID_2_);fill:#F47320;}
	.st38{clip-path:url(#SVGID_2_);fill:#F47120;}
	.st39{clip-path:url(#SVGID_2_);fill:#F47020;}
	.st40{clip-path:url(#SVGID_2_);fill:#F46F20;}
	.st41{clip-path:url(#SVGID_2_);fill:#F46E20;}
	.st42{clip-path:url(#SVGID_2_);fill:#F46D20;}
	.st43{clip-path:url(#SVGID_2_);fill:#F46C20;}
	.st44{clip-path:url(#SVGID_2_);fill:#F46B20;}
	.st45{clip-path:url(#SVGID_2_);fill:#F46A20;}
	.st46{clip-path:url(#SVGID_2_);fill:#F36920;}
	.st47{clip-path:url(#SVGID_2_);fill:#F79620;}
	.st48{clip-path:url(#SVGID_2_);fill:#F36820;}
	.st49{clip-path:url(#SVGID_2_);fill:#F36720;}
	.st50{clip-path:url(#SVGID_4_);fill:#FBB333;}
	.st51{clip-path:url(#SVGID_4_);fill:#F78E1E;}
	.st52{clip-path:url(#SVGID_4_);fill:#ED1C24;}
	.st53{clip-path:url(#SVGID_4_);fill:#F78F1E;}
	.st54{clip-path:url(#SVGID_4_);fill:#F68D1E;}
	.st55{clip-path:url(#SVGID_4_);fill:#F68C1E;}
	.st56{clip-path:url(#SVGID_4_);fill:#F68B1E;}
	.st57{clip-path:url(#SVGID_4_);fill:#F68A1E;}
	.st58{clip-path:url(#SVGID_4_);fill:#F6891F;}
	.st59{clip-path:url(#SVGID_4_);fill:#F6881F;}
	.st60{clip-path:url(#SVGID_4_);fill:#F6871F;}
	.st61{clip-path:url(#SVGID_4_);fill:#F6861F;}
	.st62{clip-path:url(#SVGID_4_);fill:#F6851F;}
	.st63{clip-path:url(#SVGID_4_);fill:#F6841F;}
	.st64{clip-path:url(#SVGID_4_);fill:#F6831F;}
	.st65{clip-path:url(#SVGID_4_);fill:#F6821F;}
	.st66{clip-path:url(#SVGID_4_);fill:#F5811F;}
	.st67{clip-path:url(#SVGID_4_);fill:#F5801F;}
	.st68{clip-path:url(#SVGID_4_);fill:#F57F1F;}
	.st69{clip-path:url(#SVGID_4_);fill:#F57E1F;}
	.st70{clip-path:url(#SVGID_4_);fill:#F57D1F;}
	.st71{clip-path:url(#SVGID_6_);fill:#FBB333;}
	.st72{clip-path:url(#SVGID_6_);fill:#F57B1F;}
	.st73{clip-path:url(#SVGID_6_);fill:#ED1C24;}
	.st74{clip-path:url(#SVGID_6_);fill:#F57A1F;}
	.st75{clip-path:url(#SVGID_6_);fill:#F5791F;}
	.st76{clip-path:url(#SVGID_6_);fill:#F5781F;}
</style>
<g>
	<g>
		<g>
			<defs>
				<path id="SVGID_1_" d="M20,3.11C10.73,3.11,3.18,10.69,3.18,20S10.73,36.89,20,36.89c9.27,0,16.82-7.58,16.82-16.89
					S29.27,3.11,20,3.11L20,3.11z M20,35.59C11.44,35.59,4.48,28.6,4.48,20c0-8.6,6.96-15.59,15.52-15.59
					c8.56,0,15.52,6.99,15.52,15.59C35.52,28.6,28.56,35.59,20,35.59L20,35.59z M20,35.59"/>
			</defs>
			<clipPath id="SVGID_2_">
				<use xlink:href="#SVGID_1_"  style="overflow:visible;"/>
			</clipPath>
			<path class="st0" d="M20,35.59L20,35.59L20,35.59z"/>
			<path class="st1" d="M20,35.59L20,35.59L20,35.59z"/>
			<path class="st2" d="M20,35.59L20,35.59L20,35.59z"/>
			<polygon class="st3" points="7.79,4.41 4.48,6.06 4.48,4.41 			"/>
			<polygon class="st4" points="14.22,4.41 4.48,9.25 4.48,6.06 7.79,4.41 			"/>
			<polygon class="st5" points="20.64,4.41 4.48,12.45 4.48,9.25 14.22,4.41 			"/>
			<polygon class="st5" points="22.48,4.41 4.48,13.37 4.48,12.45 20.64,4.41 			"/>
			<polygon class="st6" points="24.32,4.41 4.48,14.28 4.48,13.37 22.48,4.41 			"/>
			<polygon class="st7" points="26.16,4.41 4.48,15.2 4.48,14.28 24.32,4.41 			"/>
			<polygon class="st8" points="28,4.41 4.48,16.11 4.48,15.2 26.16,4.41 			"/>
			<polygon class="st9" points="29.85,4.41 4.48,17.03 4.48,16.11 28,4.41 			"/>
			<polygon class="st10" points="31.69,4.41 4.48,17.94 4.48,17.03 29.85,4.41 			"/>
			<polygon class="st11" points="33.53,4.41 4.48,18.86 4.48,17.94 31.69,4.41 			"/>
			<polygon class="st12" points="34.28,4.41 34.49,4.84 4.48,19.77 4.48,18.86 33.53,4.41 			"/>
			<polygon class="st13" points="34.49,4.84 34.86,5.58 4.48,20.69 4.48,19.77 			"/>
			<polygon class="st14" points="34.86,5.58 35.22,6.31 4.48,21.61 4.48,20.69 			"/>
			<polygon class="st15" points="35.22,6.31 35.52,6.91 35.52,7.08 4.48,22.52 4.48,21.61 			"/>
			<polygon class="st16" points="35.52,7.99 4.48,23.44 4.48,22.52 35.52,7.08 			"/>
			<polygon class="st17" points="35.52,8.91 4.48,24.35 4.48,23.44 35.52,7.99 			"/>
			<polygon class="st18" points="35.52,9.83 4.48,25.27 4.48,24.35 35.52,8.91 			"/>
			<polygon class="st19" points="35.52,10.74 4.48,26.18 4.48,25.27 35.52,9.83 			"/>
			<polygon class="st20" points="35.52,11.66 4.48,27.1 4.48,26.18 35.52,10.74 			"/>
			<polygon class="st21" points="35.52,12.57 4.48,28.01 4.48,27.1 35.52,11.66 			"/>
			<polygon class="st22" points="35.52,13.49 4.48,28.93 4.48,28.01 35.52,12.57 			"/>
			<polygon class="st23" points="35.52,14.4 4.48,29.84 4.48,28.93 35.52,13.49 			"/>
			<polygon class="st24" points="35.52,15.32 4.48,30.76 4.48,29.84 35.52,14.4 			"/>
			<polygon class="st25" points="35.52,16.23 4.48,31.68 4.48,30.76 35.52,15.32 			"/>
			<polygon class="st26" points="35.52,17.15 4.48,32.59 4.48,31.68 35.52,16.23 			"/>
			<polygon class="st27" points="35.52,18.07 4.65,33.42 4.48,33.09 4.48,32.59 35.52,17.15 			"/>
			<polygon class="st28" points="35.52,18.98 5.01,34.16 4.65,33.42 35.52,18.07 			"/>
			<polygon class="st29" points="35.52,19.9 5.38,34.89 5.01,34.16 35.52,18.98 			"/>
			<polygon class="st30" points="35.52,20.81 5.81,35.59 5.72,35.59 5.38,34.89 35.52,19.9 			"/>
			<polygon class="st31" points="35.52,21.73 7.65,35.59 5.81,35.59 35.52,20.81 			"/>
			<polygon class="st32" points="35.52,22.64 9.49,35.59 7.65,35.59 35.52,21.73 			"/>
			<polygon class="st33" points="35.52,23.56 11.33,35.59 9.49,35.59 35.52,22.64 			"/>
			<polygon class="st34" points="35.52,24.47 13.17,35.59 11.33,35.59 35.52,23.56 			"/>
			<polygon class="st35" points="35.52,25.39 15.01,35.59 13.17,35.59 35.52,24.47 			"/>
			<polygon class="st36" points="35.52,26.3 16.85,35.59 15.01,35.59 35.52,25.39 			"/>
			<polygon class="st37" points="35.52,27.22 18.7,35.59 16.85,35.59 35.52,26.3 			"/>
			<polygon class="st1" points="35.52,28.14 20.54,35.59 18.7,35.59 35.52,27.22 			"/>
			<polygon class="st38" points="35.52,29.05 22.38,35.59 20.54,35.59 35.52,28.14 			"/>
			<polygon class="st39" points="35.52,29.97 24.22,35.59 22.38,35.59 35.52,29.05 			"/>
			<polygon class="st40" points="35.52,30.88 26.06,35.59 24.22,35.59 35.52,29.97 			"/>
			<polygon class="st41" points="35.52,31.8 27.9,35.59 26.06,35.59 35.52,30.88 			"/>
			<polygon class="st42" points="35.52,32.71 29.74,35.59 27.9,35.59 35.52,31.8 			"/>
			<polygon class="st43" points="35.52,33.63 31.58,35.59 29.74,35.59 35.52,32.71 			"/>
			<polygon class="st44" points="35.52,34.54 33.42,35.59 31.58,35.59 35.52,33.63 			"/>
			<polygon class="st45" points="35.52,35.46 35.26,35.59 33.42,35.59 35.52,34.54 			"/>
			<polygon class="st46" points="35.26,35.59 35.52,35.46 35.52,35.59 			"/>
			<polygon class="st47" points="3.99,3.11 3.18,3.51 3.18,3.11 			"/>
			<polygon class="st3" points="10.41,3.11 3.18,6.7 3.18,3.51 3.99,3.11 			"/>
			<polygon class="st4" points="16.83,3.11 3.18,9.9 3.18,6.7 10.41,3.11 			"/>
			<polygon class="st5" points="23.26,3.11 3.18,13.09 3.18,9.9 16.83,3.11 			"/>
			<polygon class="st5" points="25.1,3.11 3.18,14.01 3.18,13.09 23.26,3.11 			"/>
			<polygon class="st6" points="26.94,3.11 3.18,14.93 3.18,14.01 25.1,3.11 			"/>
			<polygon class="st7" points="28.78,3.11 3.18,15.84 3.18,14.93 26.94,3.11 			"/>
			<polygon class="st8" points="30.62,3.11 3.18,16.76 3.18,15.84 28.78,3.11 			"/>
			<polygon class="st9" points="32.46,3.11 3.18,17.67 3.18,16.76 30.62,3.11 			"/>
			<polygon class="st10" points="34.3,3.11 3.18,18.59 3.18,17.67 32.46,3.11 			"/>
			<polygon class="st11" points="35.28,3.11 35.45,3.45 3.18,19.5 3.18,18.59 34.3,3.11 			"/>
			<polygon class="st12" points="35.45,3.45 35.82,4.19 3.18,20.42 3.18,19.5 			"/>
			<polygon class="st13" points="35.82,4.19 36.18,4.92 3.18,21.33 3.18,20.42 			"/>
			<polygon class="st14" points="36.18,4.92 36.55,5.65 3.18,22.25 3.18,21.33 			"/>
			<polygon class="st15" points="36.55,5.65 36.82,6.2 36.82,6.44 3.18,23.17 3.18,22.25 			"/>
			<polygon class="st16" points="36.82,7.35 3.18,24.08 3.18,23.17 36.82,6.44 			"/>
			<polygon class="st17" points="36.82,8.27 3.18,25 3.18,24.08 36.82,7.35 			"/>
			<polygon class="st18" points="36.82,9.18 3.18,25.91 3.18,25 36.82,8.27 			"/>
			<polygon class="st19" points="36.82,10.1 3.18,26.83 3.18,25.91 36.82,9.18 			"/>
			<polygon class="st20" points="36.82,11.01 3.18,27.74 3.18,26.83 36.82,10.1 			"/>
			<polygon class="st21" points="36.82,11.93 3.18,28.66 3.18,27.74 36.82,11.01 			"/>
			<polygon class="st22" points="36.82,12.84 3.18,29.57 3.18,28.66 36.82,11.93 			"/>
			<polygon class="st23" points="36.82,13.76 3.18,30.49 3.18,29.57 36.82,12.84 			"/>
			<polygon class="st24" points="36.82,14.67 3.18,31.4 3.18,30.49 36.82,13.76 			"/>
			<polygon class="st25" points="36.82,15.59 3.18,32.32 3.18,31.4 36.82,14.67 			"/>
			<polygon class="st26" points="36.82,16.51 3.18,33.24 3.18,32.32 36.82,15.59 			"/>
			<polygon class="st27" points="36.82,17.42 3.32,34.08 3.18,33.8 3.18,33.24 36.82,16.51 			"/>
			<polygon class="st28" points="36.82,18.34 3.69,34.82 3.32,34.08 36.82,17.42 			"/>
			<polygon class="st29" points="36.82,19.25 4.05,35.55 3.69,34.82 36.82,18.34 			"/>
			<polygon class="st30" points="36.82,20.17 4.42,36.28 4.05,35.55 36.82,19.25 			"/>
			<polygon class="st31" points="36.82,21.08 5.04,36.89 4.72,36.89 4.42,36.28 36.82,20.17 			"/>
			<polygon class="st32" points="36.82,22 6.88,36.89 5.04,36.89 36.82,21.08 			"/>
			<polygon class="st33" points="36.82,22.91 8.72,36.89 6.88,36.89 36.82,22 			"/>
			<polygon class="st34" points="36.82,23.83 10.56,36.89 8.72,36.89 36.82,22.91 			"/>
			<polygon class="st35" points="36.82,24.74 12.4,36.89 10.56,36.89 36.82,23.83 			"/>
			<polygon class="st36" points="36.82,25.66 14.24,36.89 12.4,36.89 36.82,24.74 			"/>
			<polygon class="st37" points="36.82,26.58 16.08,36.89 14.24,36.89 36.82,25.66 			"/>
			<polygon class="st1" points="36.82,27.49 17.92,36.89 16.08,36.89 36.82,26.58 			"/>
			<polygon class="st38" points="36.82,28.41 19.76,36.89 17.92,36.89 36.82,27.49 			"/>
			<polygon class="st39" points="36.82,29.32 21.6,36.89 19.76,36.89 36.82,28.41 			"/>
			<polygon class="st40" points="36.82,30.24 23.44,36.89 21.6,36.89 36.82,29.32 			"/>
			<polygon class="st41" points="36.82,31.15 25.28,36.89 23.44,36.89 36.82,30.24 			"/>
			<polygon class="st42" points="36.82,32.07 27.12,36.89 25.28,36.89 36.82,31.15 			"/>
			<polygon class="st43" points="36.82,32.98 28.96,36.89 27.12,36.89 36.82,32.07 			"/>
			<polygon class="st44" points="36.82,33.9 30.8,36.89 28.96,36.89 36.82,32.98 			"/>
			<polygon class="st45" points="36.82,34.82 32.64,36.89 30.8,36.89 36.82,33.9 			"/>
			<polygon class="st46" points="36.82,35.73 34.48,36.89 32.64,36.89 36.82,34.82 			"/>
			<polygon class="st48" points="36.82,36.65 36.33,36.89 34.48,36.89 36.82,35.73 			"/>
			<polygon class="st49" points="36.33,36.89 36.82,36.65 36.82,36.89 			"/>
		</g>
	</g>
	<g>
		<g>
			<defs>
				<path id="SVGID_3_" d="M20,9.61c-0.36,0-0.65,0.29-0.65,0.65v14.29c0,0.36,0.29,0.65,0.65,0.65c0.36,0,0.65-0.29,0.65-0.65
					V10.26C20.65,9.9,20.36,9.61,20,9.61L20,9.61z M20,9.61"/>
			</defs>
			<clipPath id="SVGID_4_">
				<use xlink:href="#SVGID_3_"  style="overflow:visible;"/>
			</clipPath>
			<path class="st50" d="M20,9.61L20,9.61L20,9.61z"/>
			<path class="st51" d="M20,9.61L20,9.61L20,9.61z"/>
			<path class="st52" d="M20,9.61L20,9.61L20,9.61z"/>
			<polygon class="st53" points="19.4,9.61 19.35,9.63 19.35,9.61 			"/>
			<polygon class="st51" points="20.65,9.9 19.35,10.54 19.35,9.63 19.4,9.61 20.65,9.61 			"/>
			<polygon class="st54" points="20.65,10.82 19.35,11.46 19.35,10.54 20.65,9.9 			"/>
			<polygon class="st55" points="20.65,11.73 19.35,12.38 19.35,11.46 20.65,10.82 			"/>
			<polygon class="st56" points="20.65,12.65 19.35,13.29 19.35,12.38 20.65,11.73 			"/>
			<polygon class="st57" points="20.65,13.56 19.35,14.21 19.35,13.29 20.65,12.65 			"/>
			<polygon class="st58" points="20.65,14.48 19.35,15.12 19.35,14.21 20.65,13.56 			"/>
			<polygon class="st59" points="20.65,15.39 19.35,16.04 19.35,15.12 20.65,14.48 			"/>
			<polygon class="st60" points="20.65,16.31 19.35,16.95 19.35,16.04 20.65,15.39 			"/>
			<polygon class="st61" points="20.65,17.22 19.35,17.87 19.35,16.95 20.65,16.31 			"/>
			<polygon class="st62" points="20.65,18.14 19.35,18.78 19.35,17.87 20.65,17.22 			"/>
			<polygon class="st63" points="20.65,19.06 19.35,19.7 19.35,18.78 20.65,18.14 			"/>
			<polygon class="st64" points="20.65,19.97 19.35,20.62 19.35,19.7 20.65,19.06 			"/>
			<polygon class="st65" points="20.65,20.89 19.35,21.53 19.35,20.62 20.65,19.97 			"/>
			<polygon class="st66" points="20.65,21.8 19.35,22.45 19.35,21.53 20.65,20.89 			"/>
			<polygon class="st67" points="20.65,22.72 19.35,23.36 19.35,22.45 20.65,21.8 			"/>
			<polygon class="st68" points="20.65,23.63 19.35,24.28 19.35,23.36 20.65,22.72 			"/>
			<polygon class="st69" points="20.65,24.55 19.35,25.19 19.35,24.28 20.65,23.63 			"/>
			<polygon class="st70" points="19.35,25.19 20.65,24.55 20.65,25.2 19.35,25.2 			"/>
		</g>
	</g>
	<g>
		<g>
			<defs>
				<path id="SVGID_5_" d="M20,27.15c-0.36,0-0.65,0.29-0.65,0.65v1.3c0,0.36,0.29,0.65,0.65,0.65c0.36,0,0.65-0.29,0.65-0.65v-1.3
					C20.65,27.43,20.36,27.15,20,27.15L20,27.15z M20,27.15"/>
			</defs>
			<clipPath id="SVGID_6_">
				<use xlink:href="#SVGID_5_"  style="overflow:visible;"/>
			</clipPath>
			<path class="st71" d="M20,27.15L20,27.15L20,27.15z"/>
			<path class="st72" d="M20,27.15L20,27.15L20,27.15z"/>
			<path class="st73" d="M20,27.15L20,27.15L20,27.15z"/>
			<polygon class="st72" points="20.65,27.29 19.35,27.94 19.35,27.15 20.65,27.15 			"/>
			<polygon class="st74" points="20.65,28.21 19.35,28.85 19.35,27.94 20.65,27.29 			"/>
			<polygon class="st75" points="20.65,29.13 19.4,29.74 19.35,29.74 19.35,28.85 20.65,28.21 			"/>
			<polygon class="st76" points="19.4,29.74 20.65,29.13 20.65,29.74 			"/>
		</g>
	</g>
</g>
</svg>
