<?xml version="1.0" encoding="utf-8"?>
<!-- Generator: Adobe Illustrator 23.0.1, SVG Export Plug-In . SVG Version: 6.00 Build 0)  -->
<svg version="1.1" id="Layer_1" xmlns="http://www.w3.org/2000/svg" xmlns:xlink="http://www.w3.org/1999/xlink" x="0px" y="0px"
	 viewBox="0 0 65 65" style="enable-background:new 0 0 65 65;" xml:space="preserve">
<style type="text/css">
	.st0{fill:url(#SVGID_1_);}
	.st1{fill:#FFFFFF;}
</style>
<g>
	<linearGradient id="SVGID_1_" gradientUnits="userSpaceOnUse" x1="-12.9336" y1="-35.6504" x2="57.5635" y2="70.0953">
		<stop  offset="0" style="stop-color:#FBB333"/>
		<stop  offset="0.4842" style="stop-color:#F7931E"/>
		<stop  offset="0.9674" style="stop-color:#ED1C24"/>
		<stop  offset="1" style="stop-color:#000000"/>
	</linearGradient>
	<circle class="st0" cx="32.5" cy="32.5" r="28.1"/>
	<g>
		<g>
			<path class="st1" d="M27.47,24.92l11.01,5.41c0.95,0.43,1.5,1.13,1.5,2.05v0.25c0,0.92-0.55,1.62-1.5,2.05l-11.01,5.41
				c-0.31,0.15-0.58,0.24-0.95,0.24c-0.79,0.03-1.5-0.67-1.5-1.56c0-0.7,0.4-1.22,1.04-1.5l10.06-4.74l-10.06-4.74
				c-0.64-0.31-1.04-0.86-1.04-1.56c0-0.92,0.7-1.56,1.62-1.56C26.92,24.67,27.23,24.8,27.47,24.92z"/>
		</g>
	</g>
</g>
</svg>
