<?xml version="1.0" encoding="utf-8"?>
<!-- Generator: Adobe Illustrator 23.0.1, SVG Export Plug-In . SVG Version: 6.00 Build 0)  -->
<svg version="1.1" id="Layer_1" xmlns="http://www.w3.org/2000/svg" xmlns:xlink="http://www.w3.org/1999/xlink" x="0px" y="0px"
	 viewBox="0 0 40 40" style="enable-background:new 0 0 40 40;" xml:space="preserve">
<style type="text/css">
	.st0{fill:#FFFFFF;}
</style>
<g>
	<g>
		<g>
			<path class="st0" d="M6.47,20.5c-0.03,0-0.06,0-0.09-0.01c-0.13-0.02-0.24-0.1-0.32-0.21l-3.6-5.3c-0.15-0.23-0.1-0.54,0.13-0.69
				c0.23-0.15,0.54-0.1,0.7,0.13l3.32,4.89l4.89-3.32c0.23-0.15,0.54-0.09,0.69,0.13c0.15,0.23,0.1,0.54-0.13,0.69l-5.3,3.6
				C6.67,20.47,6.57,20.5,6.47,20.5z"/>
			<path class="st0" d="M21.8,35.83c-5.27,0-10.18-2.61-13.13-6.98c-0.16-0.23-0.1-0.54,0.13-0.69C9.03,28,9.35,28.06,9.5,28.29
				c2.77,4.1,7.36,6.54,12.3,6.54c8.18,0,14.83-6.65,14.83-14.83S29.98,5.17,21.8,5.17S6.97,11.82,6.97,20c0,0.28-0.22,0.5-0.5,0.5
				s-0.5-0.22-0.5-0.5c0-8.73,7.1-15.83,15.83-15.83S37.63,11.27,37.63,20S30.53,35.83,21.8,35.83z"/>
		</g>
	</g>
	<path class="st0" d="M26.58,26.27c-0.14,0-0.29-0.06-0.39-0.18l-4.78-5.77c-0.07-0.09-0.11-0.2-0.11-0.32v-9.59
		c0-0.28,0.22-0.5,0.5-0.5s0.5,0.22,0.5,0.5v9.41l4.66,5.63c0.18,0.21,0.15,0.53-0.07,0.7C26.8,26.23,26.69,26.27,26.58,26.27z"/>
</g>
</svg>
