<?xml version="1.0" encoding="utf-8"?>
<!-- Generator: Adobe Illustrator 23.0.1, SVG Export Plug-In . SVG Version: 6.00 Build 0)  -->
<svg version="1.1" id="Layer_1" xmlns="http://www.w3.org/2000/svg" xmlns:xlink="http://www.w3.org/1999/xlink" x="0px" y="0px"
	 viewBox="0 0 40 50" style="enable-background:new 0 0 40 50;" xml:space="preserve">
<style type="text/css">
	.st0{fill:#595959;}
</style>
<g>
	<path class="st0" d="M29.64,6.37H10.36C9.06,6.37,8,7.43,8,8.73v32.54c0,1.3,1.06,2.36,2.36,2.36h19.28c1.3,0,2.36-1.06,2.36-2.36
		V8.73C32,7.43,30.94,6.37,29.64,6.37L29.64,6.37z M9.18,12.3h21.64v24.64H9.18V12.3z M10.36,7.55h19.28c0.65,0,1.18,0.53,1.18,1.18
		v2.78H9.18V8.73C9.18,8.08,9.71,7.55,10.36,7.55L10.36,7.55z M29.64,42.45H10.36c-0.65,0-1.18-0.53-1.18-1.18v-3.54h21.64v3.54
		C30.82,41.92,30.29,42.45,29.64,42.45L29.64,42.45z M29.64,42.45"/>
	<path class="st0" d="M20,38.25c-1.07,0-1.94,0.87-1.94,1.94s0.87,1.94,1.94,1.94c1.07,0,1.94-0.87,1.94-1.94S21.07,38.25,20,38.25
		L20,38.25z M20,41.33c-0.63,0-1.15-0.51-1.15-1.15c0-0.63,0.51-1.15,1.15-1.15c0.63,0,1.15,0.51,1.15,1.15
		C21.15,40.82,20.63,41.33,20,41.33L20,41.33z M20,41.33"/>
	<path class="st0" d="M17.32,10.13h5.36c0.22,0,0.39-0.18,0.39-0.39c0-0.22-0.18-0.39-0.39-0.39h-5.36c-0.22,0-0.39,0.18-0.39,0.39
		C16.93,9.95,17.1,10.13,17.32,10.13L17.32,10.13z M17.32,10.13"/>
	<path class="st0" d="M15.9,10.13c0.1,0,0.2-0.04,0.28-0.12c0.07-0.07,0.12-0.18,0.12-0.28c0-0.1-0.04-0.21-0.12-0.28
		c-0.07-0.07-0.17-0.12-0.28-0.12c-0.1,0-0.21,0.04-0.28,0.12c-0.07,0.07-0.12,0.17-0.12,0.28c0,0.1,0.04,0.2,0.12,0.28
		C15.7,10.08,15.8,10.13,15.9,10.13L15.9,10.13z M15.9,10.13"/>
</g>
</svg>
