<?xml version="1.0" encoding="utf-8"?>
<!-- Generator: Adobe Illustrator 23.0.1, SVG Export Plug-In . SVG Version: 6.00 Build 0)  -->
<svg version="1.1" id="Layer_1" xmlns="http://www.w3.org/2000/svg" xmlns:xlink="http://www.w3.org/1999/xlink" x="0px" y="0px"
	 viewBox="0 0 60 50" style="enable-background:new 0 0 60 50;" xml:space="preserve">
<style type="text/css">
	.st0{fill:#595959;}
</style>
<g>
	<path class="st0" d="M44.3,33.94c-0.18,0-0.36-0.07-0.51-0.2l-8.57-8.04c-0.3-0.28-0.31-0.75-0.04-1.06
		c0.28-0.3,0.76-0.31,1.06-0.03l8.57,8.04c0.3,0.28,0.31,0.76,0.03,1.05C44.7,33.86,44.5,33.94,44.3,33.94L44.3,33.94z M44.3,33.94"
		/>
	<path class="st0" d="M15.7,33.94c-0.2,0-0.4-0.08-0.55-0.23c-0.28-0.3-0.27-0.77,0.03-1.05l8.58-8.04
		c0.31-0.28,0.78-0.27,1.05,0.03c0.28,0.31,0.27,0.77-0.03,1.06l-8.58,8.04C16.06,33.88,15.88,33.94,15.7,33.94L15.7,33.94z
		 M15.7,33.94"/>
	<path class="st0" d="M49.37,41.42H10.63c-2.05,0-3.72-1.66-3.72-3.72V12.3c0-2.05,1.67-3.72,3.72-3.72h38.74
		c2.05,0,3.72,1.67,3.72,3.72V37.7C53.1,39.75,51.42,41.42,49.37,41.42L49.37,41.42z M10.63,10.07c-1.23,0-2.23,1-2.23,2.23V37.7
		c0,1.24,1,2.23,2.23,2.23h38.74c1.24,0,2.23-1,2.23-2.23V12.3c0-1.23-1-2.23-2.23-2.23H10.63z M10.63,10.07"/>
	<path class="st0" d="M30,28.74c-1,0-1.98-0.33-2.73-0.98L8.14,11.08c-0.31-0.27-0.34-0.74-0.07-1.05c0.27-0.31,0.74-0.34,1.05-0.07
		l19.12,16.68c0.95,0.83,2.56,0.83,3.51,0l19.1-16.66c0.31-0.27,0.78-0.24,1.06,0.07c0.27,0.31,0.24,0.78-0.07,1.05l-19.1,16.65
		C31.98,28.42,30.99,28.74,30,28.74L30,28.74z M30,28.74"/>
</g>
</svg>
