<?xml version="1.0" encoding="utf-8"?>
<!-- Generator: Adobe Illustrator 23.0.1, SVG Export Plug-In . SVG Version: 6.00 Build 0)  -->
<svg version="1.1" id="Layer_1" xmlns="http://www.w3.org/2000/svg" xmlns:xlink="http://www.w3.org/1999/xlink" x="0px" y="0px"
	 viewBox="0 0 40 40" style="enable-background:new 0 0 40 40;" xml:space="preserve">
<style type="text/css">
	.st0{fill:url(#SVGID_1_);}
	.st1{fill:url(#SVGID_2_);}
	.st2{fill:url(#SVGID_3_);}
</style>
<g>
	<linearGradient id="SVGID_1_" gradientUnits="userSpaceOnUse" x1="-34.9345" y1="20" x2="69.7927" y2="20">
		<stop  offset="0" style="stop-color:#FBB333"/>
		<stop  offset="0.4842" style="stop-color:#F7931E"/>
		<stop  offset="1" style="stop-color:#ED1C24"/>
	</linearGradient>
	<path class="st0" d="M37.5,17.67c0.32,0,0.58-0.26,0.58-0.58V8.92c0-0.32-0.26-0.58-0.58-0.58H26.97C26.67,4.7,23.64,1.91,20,1.91
		c-3.64,0-6.68,2.79-6.97,6.42H2.5c-0.32,0-0.58,0.26-0.58,0.58v8.17c0,0.32,0.26,0.58,0.58,0.58h2.92v19.25H2.5
		c-0.32,0-0.58,0.26-0.58,0.58s0.26,0.58,0.58,0.58H37.5c0.32,0,0.58-0.26,0.58-0.58s-0.26-0.58-0.58-0.58h-2.92V17.67H37.5z
		 M20,3.08c3.22,0,5.83,2.61,5.83,5.83c0,3.22-2.61,5.83-5.83,5.83c-3.22,0-5.83-2.61-5.83-5.83C14.17,5.7,16.78,3.09,20,3.08z
		 M3.08,9.5h9.95c0.3,3.63,3.33,6.42,6.97,6.42c3.64,0,6.67-2.79,6.97-6.42h9.95v7H3.08V9.5z M13,27v-1.17h14V27H13z M25.83,28.17
		v8.75H14.17v-8.75H25.83z M33.42,36.92H27v-8.75h0.58c0.32,0,0.58-0.26,0.58-0.58v-2.33c0-0.32-0.26-0.58-0.58-0.58H12.42
		c-0.32,0-0.58,0.26-0.58,0.58v2.33c0,0.32,0.26,0.58,0.58,0.58H13v8.75H6.58V17.67h26.84V36.92z"/>
	<linearGradient id="SVGID_2_" gradientUnits="userSpaceOnUse" x1="-34.9345" y1="21.1702" x2="69.7927" y2="21.1702">
		<stop  offset="0" style="stop-color:#FBB333"/>
		<stop  offset="0.4842" style="stop-color:#F7931E"/>
		<stop  offset="1" style="stop-color:#ED1C24"/>
	</linearGradient>
	<path class="st1" d="M10.66,23.5h18.67c0.32,0,0.58-0.26,0.58-0.58v-3.5c0-0.32-0.26-0.58-0.58-0.58H10.66
		c-0.32,0-0.58,0.26-0.58,0.58v3.5C10.08,23.24,10.34,23.5,10.66,23.5z M17.08,22.34V20h5.25v2.33H17.08z M28.75,22.34H23.5V20h5.25
		V22.34z M11.25,20h4.67v2.33h-4.67V20z"/>
	<linearGradient id="SVGID_3_" gradientUnits="userSpaceOnUse" x1="-34.9345" y1="8.9179" x2="69.7927" y2="8.9179">
		<stop  offset="0" style="stop-color:#FBB333"/>
		<stop  offset="0.4842" style="stop-color:#F7931E"/>
		<stop  offset="1" style="stop-color:#ED1C24"/>
	</linearGradient>
	<path class="st2" d="M20,11.25c-0.6,0-1.17-0.35-1.17-0.72c0-0.32-0.26-0.58-0.58-0.58s-0.58,0.26-0.58,0.58
		c0.08,0.94,0.81,1.7,1.75,1.82V13c0,0.32,0.26,0.58,0.58,0.58s0.58-0.26,0.58-0.58v-0.66c0.91-0.16,1.59-0.93,1.64-1.85
		c0-1.24-1.11-1.73-2-2.12c-0.8-0.35-1.28-0.6-1.28-1.02c0-0.42,0.48-0.76,1.06-0.76c0.6,0,1.17,0.35,1.17,0.72
		c0,0.32,0.26,0.58,0.58,0.58s0.58-0.26,0.58-0.58c-0.08-0.94-0.81-1.7-1.75-1.82V4.83c0-0.32-0.26-0.58-0.58-0.58
		s-0.58,0.26-0.58,0.58v0.66c-0.91,0.16-1.59,0.93-1.64,1.85c0,1.21,1.09,1.69,1.97,2.08c0.82,0.36,1.31,0.61,1.31,1.06
		C21.06,10.9,20.57,11.25,20,11.25z"/>
</g>
</svg>
