<?xml version="1.0" encoding="utf-8"?>
<!-- Generator: Adobe Illustrator 23.0.1, SVG Export Plug-In . SVG Version: 6.00 Build 0)  -->
<svg version="1.1" id="Layer_1" xmlns="http://www.w3.org/2000/svg" xmlns:xlink="http://www.w3.org/1999/xlink" x="0px" y="0px"
	 viewBox="0 0 20 20" style="enable-background:new 0 0 20 20;" xml:space="preserve">
<style type="text/css">
	.st0{fill:#B32025;}
</style>
<g>
	<path class="st0" d="M10,0.8c-5.07,0-9.2,4.13-9.2,9.2s4.13,9.2,9.2,9.2c5.07,0,9.2-4.13,9.2-9.2S15.07,0.8,10,0.8L10,0.8z
		 M10,18.49c-4.68,0-8.49-3.81-8.49-8.49c0-4.68,3.81-8.49,8.49-8.49c4.68,0,8.49,3.81,8.49,8.49C18.49,14.68,14.68,18.49,10,18.49
		L10,18.49z M10,18.49"/>
	<path class="st0" d="M10,4.34c-0.2,0-0.35,0.16-0.35,0.35v7.78c0,0.2,0.16,0.35,0.35,0.35c0.2,0,0.35-0.16,0.35-0.35V4.69
		C10.35,4.5,10.2,4.34,10,4.34L10,4.34z M10,4.34"/>
	<path class="st0" d="M10,13.89c-0.2,0-0.35,0.16-0.35,0.35v0.71c0,0.2,0.16,0.35,0.35,0.35c0.2,0,0.35-0.16,0.35-0.35v-0.71
		C10.35,14.05,10.2,13.89,10,13.89L10,13.89z M10,13.89"/>
</g>
</svg>
