<?xml version="1.0" encoding="utf-8"?>
<!-- Generator: Adobe Illustrator 23.0.1, SVG Export Plug-In . SVG Version: 6.00 Build 0)  -->
<svg version="1.1" id="Layer_1" xmlns="http://www.w3.org/2000/svg" xmlns:xlink="http://www.w3.org/1999/xlink" x="0px" y="0px"
	 viewBox="0 0 40 50" style="enable-background:new 0 0 40 50;" xml:space="preserve">
<style type="text/css">
	.st0{fill:#f79959;}
	.st1{fill:none;stroke:#f79959;stroke-width:1.4;stroke-linecap:round;stroke-miterlimit:10;}
</style>
<g>
	<path class="st0" d="M30.91,20.3v-3.83c0-5.45-4.89-9.89-10.91-9.89c-6.02,0-10.91,4.43-10.91,9.89v3.83C6.77,20.7,5,22.72,5,25.16
		v13.32c0,2.72,2.21,4.93,4.93,4.93h20.15c2.72,0,4.93-2.21,4.93-4.93V25.15C35,22.72,33.23,20.7,30.91,20.3L30.91,20.3z
		 M10.45,16.48c0-4.7,4.29-8.52,9.55-8.52c5.26,0,9.54,3.82,9.54,8.52v3.75H10.45V16.48z M33.64,38.48c0,1.96-1.6,3.57-3.57,3.57
		H9.93c-1.96,0-3.56-1.6-3.56-3.57V25.15c0-1.96,1.6-3.56,3.56-3.56h20.15c1.96,0,3.57,1.6,3.57,3.56V38.48z M33.64,38.48"/>
	<path class="st1" d="M13,33.46l2.03,2.03c1.09,1.09,2.85,1.09,3.94,0L27,27.46"/>
</g>
</svg>
