<?xml version="1.0" encoding="utf-8"?>
<!-- Generator: Adobe Illustrator 23.0.1, SVG Export Plug-In . SVG Version: 6.00 Build 0)  -->
<svg version="1.1" id="Layer_1" xmlns="http://www.w3.org/2000/svg" xmlns:xlink="http://www.w3.org/1999/xlink" x="0px" y="0px"
	 viewBox="0 0 38 38" style="enable-background:new 0 0 38 38;" xml:space="preserve">
<style type="text/css">
	.st0{fill:url(#SVGID_1_);}
	.st1{fill:url(#SVGID_2_);}
	.st2{fill:url(#SVGID_3_);}
</style>
<g>
	<g>
		<linearGradient id="SVGID_1_" gradientUnits="userSpaceOnUse" x1="4.3496" y1="10.1855" x2="33.6504" y2="10.1855">
			<stop  offset="0" style="stop-color:#FBB333"/>
			<stop  offset="0.4842" style="stop-color:#F7931E"/>
			<stop  offset="0.9674" style="stop-color:#ED1C24"/>
		</linearGradient>
		<path class="st0" d="M33,10.84H5c-0.36,0-0.65-0.29-0.65-0.65S4.64,9.54,5,9.54h28c0.36,0,0.65,0.29,0.65,0.65
			S33.36,10.84,33,10.84z"/>
	</g>
	<g>
		<linearGradient id="SVGID_2_" gradientUnits="userSpaceOnUse" x1="4.3496" y1="19" x2="33.6504" y2="19">
			<stop  offset="0" style="stop-color:#FBB333"/>
			<stop  offset="0.4842" style="stop-color:#F7931E"/>
			<stop  offset="0.9674" style="stop-color:#ED1C24"/>
		</linearGradient>
		<path class="st1" d="M33,19.65H5c-0.36,0-0.65-0.29-0.65-0.65S4.64,18.35,5,18.35h28c0.36,0,0.65,0.29,0.65,0.65
			S33.36,19.65,33,19.65z"/>
	</g>
	<g>
		<linearGradient id="SVGID_3_" gradientUnits="userSpaceOnUse" x1="4.3496" y1="27.8145" x2="33.6504" y2="27.8145">
			<stop  offset="0" style="stop-color:#FBB333"/>
			<stop  offset="0.4842" style="stop-color:#F7931E"/>
			<stop  offset="0.9674" style="stop-color:#ED1C24"/>
		</linearGradient>
		<path class="st2" d="M33,28.46H5c-0.36,0-0.65-0.29-0.65-0.65S4.64,27.16,5,27.16h28c0.36,0,0.65,0.29,0.65,0.65
			S33.36,28.46,33,28.46z"/>
	</g>
</g>
</svg>
