<?xml version="1.0" encoding="utf-8"?>
<!-- Generator: Adobe Illustrator 23.0.1, SVG Export Plug-In . SVG Version: 6.00 Build 0)  -->
<svg version="1.1" id="Layer_1" xmlns="http://www.w3.org/2000/svg" xmlns:xlink="http://www.w3.org/1999/xlink" x="0px" y="0px"
	 viewBox="0 0 40 40" style="enable-background:new 0 0 40 40;" xml:space="preserve">
<style type="text/css">
	.st0{fill:url(#SVGID_1_);}
	.st1{fill:url(#SVGID_2_);}
	.st2{fill:url(#SVGID_3_);}
</style>
<g>
	<linearGradient id="SVGID_1_" gradientUnits="userSpaceOnUse" x1="-34.9345" y1="20.0005" x2="69.7927" y2="20.0005">
		<stop  offset="0" style="stop-color:#FBB333"/>
		<stop  offset="0.4842" style="stop-color:#F7931E"/>
		<stop  offset="1" style="stop-color:#ED1C24"/>
	</linearGradient>
	<path class="st0" d="M2.53,25.51V14.49c0-0.39,0.32-0.71,0.69-0.71h7.73c0.36,0,0.64,0.28,0.64,0.64s-0.29,0.64-0.64,0.64H3.93
		v4.25h6.22c0.36,0,0.64,0.3,0.64,0.64c0,0.36-0.29,0.64-0.64,0.64H3.93v4.35h7.11c0.36,0,0.64,0.29,0.64,0.64s-0.29,0.64-0.64,0.64
		H3.22C2.85,26.22,2.53,25.9,2.53,25.51z"/>
	<linearGradient id="SVGID_2_" gradientUnits="userSpaceOnUse" x1="-34.9345" y1="20.0005" x2="69.7927" y2="20.0005">
		<stop  offset="0" style="stop-color:#FBB333"/>
		<stop  offset="0.4842" style="stop-color:#F7931E"/>
		<stop  offset="1" style="stop-color:#ED1C24"/>
	</linearGradient>
	<path class="st1" d="M13.55,14.42c0-0.37,0.32-0.69,0.69-0.69h0.2c0.32,0,0.52,0.16,0.71,0.41l7.56,9.63v-9.39
		c0-0.37,0.3-0.69,0.69-0.69c0.37,0,0.67,0.32,0.67,0.69v11.23c0,0.37-0.27,0.66-0.64,0.66h-0.07c-0.3,0-0.52-0.18-0.73-0.43
		l-7.71-9.87v9.63c0,0.37-0.3,0.69-0.69,0.69c-0.37,0-0.68-0.32-0.68-0.69V14.42z"/>
	<linearGradient id="SVGID_3_" gradientUnits="userSpaceOnUse" x1="-34.9345" y1="20" x2="69.7927" y2="20">
		<stop  offset="0" style="stop-color:#FBB333"/>
		<stop  offset="0.4842" style="stop-color:#F7931E"/>
		<stop  offset="1" style="stop-color:#ED1C24"/>
	</linearGradient>
	<path class="st2" d="M26.15,20.04V20c0-3.41,2.51-6.44,6.24-6.44c1.88,0,3.11,0.5,4.25,1.33c0.16,0.12,0.28,0.32,0.28,0.57
		c0,0.39-0.32,0.71-0.69,0.71c-0.16,0-0.3-0.07-0.44-0.18c-0.89-0.68-1.88-1.14-3.45-1.14c-2.76,0-4.73,2.33-4.73,5.1V20
		c0,2.97,1.9,5.17,4.92,5.17c1.42,0,2.74-0.55,3.59-1.24v-3.09h-3.34c-0.34,0-0.62-0.28-0.62-0.62c0-0.36,0.29-0.64,0.62-0.64h4
		c0.37,0,0.69,0.32,0.69,0.71v3.79c0,0.34-0.16,0.64-0.48,0.85c-1.14,0.84-2.67,1.51-4.52,1.51C28.57,26.44,26.15,23.59,26.15,20.04
		z"/>
</g>
</svg>
