<?xml version="1.0" encoding="utf-8"?>
<!-- Generator: Adobe Illustrator 23.0.1, SVG Export Plug-In . SVG Version: 6.00 Build 0)  -->
<svg version="1.1" id="Layer_1" xmlns="http://www.w3.org/2000/svg" xmlns:xlink="http://www.w3.org/1999/xlink" x="0px" y="0px"
	 viewBox="0 0 40 50" style="enable-background:new 0 0 40 50;" xml:space="preserve">
<style type="text/css">
	.st0{fill:#595959;}
</style>
<g>
	<path class="st0" d="M20,26.14c2.32,0,4.19-1.88,4.19-4.19c0-2.32-1.88-4.19-4.19-4.19c-2.32,0-4.19,1.88-4.19,4.19
		C15.81,24.26,17.69,26.13,20,26.14z M20,19.38c1.42,0,2.57,1.15,2.57,2.57c0,1.42-1.15,2.57-2.57,2.57c-1.42,0-2.57-1.15-2.57-2.57
		C17.43,20.53,18.58,19.38,20,19.38z"/>
	<path class="st0" d="M20,27.68c-1.72-0.01-3.36,0.68-4.56,1.91c-1.22,1.24-1.88,2.93-1.88,4.76c0,0.45,0.36,0.81,0.81,0.81h11.26
		c0.45,0,0.81-0.36,0.81-0.81c0-1.83-0.66-3.52-1.88-4.76C23.36,28.36,21.72,27.67,20,27.68z M15.24,33.54
		c0.14-1.06,0.62-2.05,1.36-2.81c0.9-0.91,2.12-1.42,3.4-1.42c1.28,0,2.5,0.51,3.4,1.42c0.74,0.77,1.22,1.75,1.36,2.81H15.24z"/>
	<path class="st0" d="M29.73,6.59H10.27c-2.24,0-4.05,1.82-4.05,4.05v28.71c0,2.24,1.82,4.05,4.05,4.05h19.46
		c2.24,0,4.05-1.82,4.05-4.05V10.65C33.79,8.41,31.97,6.59,29.73,6.59z M32.35,39.57c0,1.36-1.11,2.47-2.47,2.47H10.12
		c-1.36,0-2.47-1.11-2.47-2.47V10.43c0-1.36,1.11-2.47,2.47-2.47h19.76c1.36,0,2.47,1.11,2.47,2.47V39.57z"/>
	<path class="st0" d="M16.62,12.03h6.49c0.45,0,0.81-0.36,0.81-0.81s-0.36-0.81-0.81-0.81h-6.49c-0.45,0-0.81,0.36-0.81,0.81
		S16.17,12.03,16.62,12.03z"/>
</g>
</svg>
