<?xml version="1.0" encoding="utf-8"?>
<!-- Generator: Adobe Illustrator 23.0.1, SVG Export Plug-In . SVG Version: 6.00 Build 0)  -->
<svg version="1.1" id="Layer_1" xmlns="http://www.w3.org/2000/svg" xmlns:xlink="http://www.w3.org/1999/xlink" x="0px" y="0px"
	 viewBox="0 0 300 225" style="enable-background:new 0 0 300 225;" xml:space="preserve">
<style type="text/css">
	.st0{fill-rule:evenodd;clip-rule:evenodd;fill:#EFEFEF;}
</style>
<g>
	<path class="st0" d="M19.25,114.61C34.05,175.28,87.66,217.6,149.74,217.6c63.48,0,118.48-45.14,131.2-107.22
		c0.71-5.63-2.82-11.99-9.16-13.4c-6.37-1.41-12.71,2.82-13.42,9.17c-10.57,51.5-56.42,88.17-108.62,88.17
		c-51.49,0-95.93-34.56-107.92-84.64c-1.41-6.35-7.76-10.58-14.1-8.46C22.06,102.62,17.83,108.27,19.25,114.61L19.25,114.61z"/>
	<path class="st0" d="M77.08,29.97c0,12.7,10.59,23.28,23.28,23.28c12.7,0,23.28-10.58,23.28-23.28S113.06,7.4,100.36,7.4
		C87.66,7.4,77.08,17.28,77.08,29.97L77.08,29.97z"/>
	<path class="st0" d="M196.3,7.4c-12.7,0-23.28,9.87-23.28,22.57s10.57,23.28,23.28,23.28c12.69,0,23.28-10.58,23.28-23.28
		S208.98,7.4,196.3,7.4L196.3,7.4z"/>
</g>
</svg>
