<?xml version="1.0" encoding="utf-8"?>
<!-- Generator: Adobe Illustrator 23.0.1, SVG Export Plug-In . SVG Version: 6.00 Build 0)  -->
<svg version="1.1" id="Layer_1" xmlns="http://www.w3.org/2000/svg" xmlns:xlink="http://www.w3.org/1999/xlink" x="0px" y="0px"
	 viewBox="0 0 38 38" style="enable-background:new 0 0 38 38;" xml:space="preserve">
<style type="text/css">
	.st0{fill:#565656;}
</style>
<g>
	<g>
		<g>
			<path class="st0" d="M32.07,27.3c-0.07-1.9-0.75-3.75-1.94-5.23c-0.54-0.68-0.96-1.44-1.24-2.26c-0.29-0.82-0.43-1.67-0.43-2.54
				v-1.51c0-4.38-2.99-8.07-7.03-9.15V5.43C21.43,4.09,20.34,3,19,3c-1.34,0-2.43,1.09-2.43,2.43v1.18
				c-1.6,0.42-3.06,1.26-4.26,2.46c-1.79,1.79-2.77,4.16-2.77,6.69v1.51c0,1.74-0.59,3.44-1.67,4.8c-0.63,0.79-1.11,1.67-1.44,2.62
				c-0.29,0.84-0.46,1.72-0.49,2.61c-0.72,0.32-1.22,1.04-1.22,1.88c0,1.14,0.93,2.06,2.06,2.06h7.9C14.97,33.37,16.8,35,19,35
				s4.03-1.63,4.33-3.75h7.9c1.14,0,2.06-0.93,2.06-2.06C33.3,28.35,32.79,27.63,32.07,27.3z M17.81,5.43
				c0-0.65,0.53-1.19,1.19-1.19c0.65,0,1.19,0.53,1.19,1.19v0.94C19.8,6.32,19.4,6.29,19,6.29c-0.4,0-0.8,0.02-1.19,0.07V5.43z
				 M7.59,25.1c0.29-0.82,0.7-1.58,1.24-2.26c1.25-1.58,1.94-3.56,1.94-5.57v-1.51c0-2.2,0.86-4.26,2.41-5.81
				C14.74,8.39,16.8,7.54,19,7.54c4.53,0,8.22,3.69,8.22,8.22v1.51c0,1.01,0.17,2,0.5,2.95c0.33,0.95,0.82,1.83,1.44,2.62
				c0.97,1.22,1.55,2.73,1.65,4.28H7.18C7.23,26.43,7.36,25.75,7.59,25.1z M19,33.76c-1.51,0-2.78-1.08-3.07-2.51h6.14
				C21.78,32.68,20.51,33.76,19,33.76z M31.23,30.01H6.77c-0.45,0-0.82-0.37-0.82-0.82c0-0.45,0.37-0.82,0.82-0.82h24.47
				c0.45,0,0.82,0.37,0.82,0.82C32.05,29.64,31.68,30.01,31.23,30.01z"/>
		</g>
	</g>
</g>
</svg>
