<?xml version="1.0" encoding="utf-8"?>
<!-- Generator: Adobe Illustrator 23.0.1, SVG Export Plug-In . SVG Version: 6.00 Build 0)  -->
<svg version="1.1" id="Layer_1" xmlns="http://www.w3.org/2000/svg" xmlns:xlink="http://www.w3.org/1999/xlink" x="0px" y="0px"
	 viewBox="0 0 40 40" style="enable-background:new 0 0 40 40;" xml:space="preserve">
<style type="text/css">
	.st0{fill:url(#SVGID_1_);}
	.st1{fill:url(#SVGID_2_);}
</style>
<g>
	<linearGradient id="SVGID_1_" gradientUnits="userSpaceOnUse" x1="10.4514" y1="19.9566" x2="45.9423" y2="20.9747">
		<stop  offset="0" style="stop-color:#FBB333"/>
		<stop  offset="0.4842" style="stop-color:#F7931E"/>
		<stop  offset="1" style="stop-color:#ED1C24"/>
	</linearGradient>
	<path class="st0" d="M8.27,14.4c0-0.4,0.32-0.72,0.7-0.72h4.66c1.44,0,2.57,0.41,3.3,1.12c0.52,0.54,0.81,1.21,0.81,2.02v0.04
		c0,1.64-1.01,2.48-2,2.92c1.49,0.45,2.7,1.31,2.7,3.04v0.04c0,2.16-1.82,3.44-4.57,3.44h-4.9c-0.38,0-0.7-0.32-0.7-0.72V14.4z
		 M13.4,19.3c1.71,0,2.9-0.77,2.9-2.25v-0.04c0-1.24-0.99-2.05-2.79-2.05H9.68v4.34H13.4z M13.91,25.01c1.91,0,3.1-0.85,3.1-2.25
		v-0.04c0-1.37-1.15-2.16-3.35-2.16H9.68v4.45H13.91z"/>
	<linearGradient id="SVGID_2_" gradientUnits="userSpaceOnUse" x1="8.864" y1="19.5173" x2="44.3549" y2="20.5355">
		<stop  offset="0" style="stop-color:#FBB333"/>
		<stop  offset="0.4842" style="stop-color:#F7931E"/>
		<stop  offset="1" style="stop-color:#ED1C24"/>
	</linearGradient>
	<path class="st1" d="M19.67,14.33c0-0.38,0.32-0.7,0.7-0.7h0.16c0.31,0,0.52,0.16,0.67,0.38l4.5,6.77L30.2,14
		c0.14-0.23,0.38-0.38,0.67-0.38h0.16c0.38,0,0.7,0.32,0.7,0.7v11.33c0,0.4-0.32,0.72-0.7,0.72c-0.4,0-0.72-0.34-0.72-0.72v-9.4
		l-4.03,5.92c-0.16,0.23-0.34,0.36-0.59,0.36s-0.45-0.13-0.61-0.36l-4.01-5.91v9.4c0,0.4-0.31,0.7-0.7,0.7
		c-0.38,0-0.68-0.31-0.68-0.7V14.33z"/>
</g>
</svg>
