<?xml version="1.0" encoding="utf-8"?>
<!-- Generator: Adobe Illustrator 23.0.1, SVG Export Plug-In . SVG Version: 6.00 Build 0)  -->
<svg version="1.1" id="Layer_1" xmlns="http://www.w3.org/2000/svg" xmlns:xlink="http://www.w3.org/1999/xlink" x="0px" y="0px"
	 viewBox="0 0 40 40" style="enable-background:new 0 0 40 40;" xml:space="preserve">
<style type="text/css">
	.st0{fill:#595959;}
</style>
<g>
	<path class="st0" d="M35.54,6.74H4.46c-1.4,0-2.54,1.14-2.54,2.54v21.44c0,1.4,1.14,2.54,2.54,2.54h31.09
		c1.4,0,2.54-1.14,2.54-2.54V9.28C38.09,7.88,36.95,6.74,35.54,6.74z M36.88,30.72c0,0.74-0.6,1.34-1.34,1.34H4.46
		c-0.74,0-1.34-0.6-1.34-1.34V9.28c0-0.74,0.6-1.34,1.34-1.34h31.09c0.74,0,1.34,0.6,1.34,1.34V30.72z"/>
	<path class="st0" d="M15.56,23.77l-2.19-1.12v-0.23c0.98-0.54,1.67-1.42,2.06-2.63c0.58-0.31,0.96-0.91,0.96-1.59v-0.6
		c0-0.56-0.26-1.08-0.69-1.42c-0.38-2.28-1.97-3.43-4.73-3.43c-0.13,0-0.26,0-0.38,0.01c-0.52,0.04-1.28,0-1.94-0.45
		c-0.25-0.17-0.43-0.33-0.55-0.48c-0.2-0.26-0.54-0.35-0.85-0.22c-0.3,0.12-0.48,0.43-0.44,0.75c0.03,0.23,0.06,0.49,0.12,0.78
		c0.12,0.59,0.12,0.59-0.05,0.94c-0.06,0.13-0.14,0.3-0.23,0.51c-0.2,0.49-0.34,1.02-0.42,1.6c-0.43,0.34-0.68,0.86-0.68,1.41v0.6
		c0,0.68,0.37,1.28,0.96,1.59c0.39,1.21,1.08,2.1,2.06,2.63v0.23l-2.27,1.12c-0.83,0.45-1.35,1.32-1.35,2.27v0.8
		c0,0.48,0,1.62,6.03,1.62s6.03-1.13,6.03-1.62v-0.75C16.99,25.09,16.44,24.21,15.56,23.77z M15.78,26.69
		c-0.38,0.23-1.91,0.55-4.82,0.55s-4.45-0.32-4.82-0.55v-0.66c0-0.5,0.27-0.97,0.69-1.19l2.33-1.15c0.36-0.18,0.6-0.55,0.6-0.96
		v-1.09l-0.36-0.16c-0.91-0.39-1.51-1.15-1.82-2.3l-0.09-0.32l-0.32-0.1c-0.25-0.08-0.43-0.31-0.43-0.57v-0.6
		c0-0.22,0.12-0.42,0.33-0.53l0.28-0.15l0.03-0.32c0.06-0.57,0.19-1.09,0.37-1.55c0.08-0.2,0.15-0.34,0.2-0.46
		c0.2-0.44,0.28-0.67,0.23-1.13c0.71,0.41,1.56,0.58,2.49,0.51c0.09-0.01,0.19-0.01,0.29-0.01c2.26,0,3.36,0.82,3.57,2.65l0.04,0.31
		l0.28,0.15c0.2,0.11,0.33,0.31,0.33,0.53v0.6c0,0.26-0.18,0.49-0.43,0.57l-0.32,0.1l-0.09,0.32c-0.31,1.15-0.9,1.91-1.82,2.3
		l-0.36,0.16v1.09c0,0.4,0.22,0.77,0.58,0.95l2.28,1.16c0.47,0.23,0.76,0.71,0.76,1.23V26.69z"/>
	<path class="st0" d="M20,15.78h6.03c0.33,0,0.6-0.27,0.6-0.6s-0.27-0.6-0.6-0.6H20c-0.33,0-0.6,0.27-0.6,0.6S19.67,15.78,20,15.78z
		"/>
	<path class="st0" d="M28.44,15.78h0.6c0.33,0,0.6-0.27,0.6-0.6s-0.27-0.6-0.6-0.6h-0.6c-0.33,0-0.6,0.27-0.6,0.6
		S28.11,15.78,28.44,15.78z"/>
	<path class="st0" d="M20.6,24.82H20c-0.33,0-0.6,0.27-0.6,0.6c0,0.33,0.27,0.6,0.6,0.6h0.6c0.33,0,0.6-0.27,0.6-0.6
		C21.21,25.09,20.94,24.82,20.6,24.82z"/>
	<path class="st0" d="M24.22,24.82h-1.21c-0.33,0-0.6,0.27-0.6,0.6c0,0.33,0.27,0.6,0.6,0.6h1.21c0.33,0,0.6-0.27,0.6-0.6
		C24.82,25.09,24.55,24.82,24.22,24.82z"/>
	<path class="st0" d="M27.23,24.82h-0.6c-0.33,0-0.6,0.27-0.6,0.6c0,0.33,0.27,0.6,0.6,0.6h0.6c0.33,0,0.6-0.27,0.6-0.6
		C27.84,25.09,27.57,24.82,27.23,24.82z"/>
	<path class="st0" d="M30.85,24.82h-1.21c-0.33,0-0.6,0.27-0.6,0.6c0,0.33,0.27,0.6,0.6,0.6h1.21c0.33,0,0.6-0.27,0.6-0.6
		C31.45,25.09,31.19,24.82,30.85,24.82z"/>
	<path class="st0" d="M32.84,25c-0.11,0.11-0.17,0.27-0.17,0.43c0,0.16,0.07,0.31,0.17,0.43c0.11,0.11,0.27,0.17,0.43,0.17
		c0.16,0,0.31-0.07,0.43-0.17c0.11-0.11,0.17-0.27,0.17-0.43c0-0.16-0.07-0.31-0.17-0.43C33.46,24.77,33.06,24.77,32.84,25z"/>
	<path class="st0" d="M33.26,18.19H20c-0.33,0-0.6,0.27-0.6,0.6s0.27,0.6,0.6,0.6h13.26c0.33,0,0.6-0.27,0.6-0.6
		S33.6,18.19,33.26,18.19z"/>
	<path class="st0" d="M33.26,21.81H20c-0.33,0-0.6,0.27-0.6,0.6s0.27,0.6,0.6,0.6h13.26c0.33,0,0.6-0.27,0.6-0.6
		S33.6,21.81,33.26,21.81z"/>
</g>
</svg>
