<?xml version="1.0" encoding="utf-8"?>
<!-- Generator: Adobe Illustrator 23.0.1, SVG Export Plug-In . SVG Version: 6.00 Build 0)  -->
<svg version="1.1" id="Layer_1" xmlns="http://www.w3.org/2000/svg" xmlns:xlink="http://www.w3.org/1999/xlink" x="0px" y="0px"
	 viewBox="0 0 38 38" style="enable-background:new 0 0 38 38;" xml:space="preserve">
<style type="text/css">
	.st0{fill:#565656;}
</style>
<g>
	<g>
		<path class="st0" d="M33,10.84H5c-0.36,0-0.65-0.29-0.65-0.65S4.64,9.54,5,9.54h28c0.36,0,0.65,0.29,0.65,0.65
			S33.36,10.84,33,10.84z"/>
	</g>
	<g>
		<path class="st0" d="M33,19.65H5c-0.36,0-0.65-0.29-0.65-0.65S4.64,18.35,5,18.35h28c0.36,0,0.65,0.29,0.65,0.65
			S33.36,19.65,33,19.65z"/>
	</g>
	<g>
		<path class="st0" d="M33,28.46H5c-0.36,0-0.65-0.29-0.65-0.65S4.64,27.16,5,27.16h28c0.36,0,0.65,0.29,0.65,0.65
			S33.36,28.46,33,28.46z"/>
	</g>
</g>
</svg>
