<?xml version="1.0" encoding="utf-8"?>
<!-- Generator: Adobe Illustrator 23.0.1, SVG Export Plug-In . SVG Version: 6.00 Build 0)  -->
<svg version="1.1" id="Layer_1" xmlns="http://www.w3.org/2000/svg" xmlns:xlink="http://www.w3.org/1999/xlink" x="0px" y="0px"
	 viewBox="0 0 40 40" style="enable-background:new 0 0 40 40;" xml:space="preserve">
<style type="text/css">
	.st0{clip-path:url(#SVGID_2_);fill:#FBB333;}
	.st1{clip-path:url(#SVGID_2_);fill:#F46E20;}
	.st2{clip-path:url(#SVGID_2_);fill:#ED1C24;}
	.st3{clip-path:url(#SVGID_2_);fill:#F89821;}
	.st4{clip-path:url(#SVGID_2_);fill:#F89721;}
	.st5{clip-path:url(#SVGID_2_);fill:#F79620;}
	.st6{clip-path:url(#SVGID_2_);fill:#F7951F;}
	.st7{clip-path:url(#SVGID_2_);fill:#F7941F;}
	.st8{clip-path:url(#SVGID_2_);fill:#F7931E;}
	.st9{clip-path:url(#SVGID_2_);fill:#F7921E;}
	.st10{clip-path:url(#SVGID_2_);fill:#F7911E;}
	.st11{clip-path:url(#SVGID_2_);fill:#F7901E;}
	.st12{clip-path:url(#SVGID_2_);fill:#F78F1E;}
	.st13{clip-path:url(#SVGID_2_);fill:#F78E1E;}
	.st14{clip-path:url(#SVGID_2_);fill:#F68D1E;}
	.st15{clip-path:url(#SVGID_2_);fill:#F68C1E;}
	.st16{clip-path:url(#SVGID_2_);fill:#F68B1E;}
	.st17{clip-path:url(#SVGID_2_);fill:#F68A1E;}
	.st18{clip-path:url(#SVGID_2_);fill:#F6891F;}
	.st19{clip-path:url(#SVGID_2_);fill:#F6881F;}
	.st20{clip-path:url(#SVGID_2_);fill:#F6871F;}
	.st21{clip-path:url(#SVGID_2_);fill:#F6861F;}
	.st22{clip-path:url(#SVGID_2_);fill:#F6851F;}
	.st23{clip-path:url(#SVGID_2_);fill:#F6841F;}
	.st24{clip-path:url(#SVGID_2_);fill:#F6831F;}
	.st25{clip-path:url(#SVGID_2_);fill:#F6821F;}
	.st26{clip-path:url(#SVGID_2_);fill:#F5811F;}
	.st27{clip-path:url(#SVGID_2_);fill:#F5801F;}
	.st28{clip-path:url(#SVGID_2_);fill:#F57F1F;}
	.st29{clip-path:url(#SVGID_2_);fill:#F57E1F;}
	.st30{clip-path:url(#SVGID_2_);fill:#F57D1F;}
	.st31{clip-path:url(#SVGID_2_);fill:#F57C1F;}
	.st32{clip-path:url(#SVGID_2_);fill:#F57B1F;}
	.st33{clip-path:url(#SVGID_2_);fill:#F57A1F;}
	.st34{clip-path:url(#SVGID_2_);fill:#F5791F;}
	.st35{clip-path:url(#SVGID_2_);fill:#F5781F;}
	.st36{clip-path:url(#SVGID_2_);fill:#F5771F;}
	.st37{clip-path:url(#SVGID_2_);fill:#F5761F;}
	.st38{clip-path:url(#SVGID_2_);fill:#F47520;}
	.st39{clip-path:url(#SVGID_2_);fill:#F47420;}
	.st40{clip-path:url(#SVGID_2_);fill:#F47320;}
	.st41{clip-path:url(#SVGID_2_);fill:#F47220;}
	.st42{clip-path:url(#SVGID_2_);fill:#F47120;}
	.st43{clip-path:url(#SVGID_2_);fill:#F47020;}
	.st44{clip-path:url(#SVGID_2_);fill:#F46F20;}
	.st45{clip-path:url(#SVGID_2_);fill:#F89922;}
	.st46{clip-path:url(#SVGID_2_);fill:#F46D20;}
	.st47{clip-path:url(#SVGID_2_);fill:#F46C20;}
	.st48{clip-path:url(#SVGID_4_);fill:#FBB333;}
	.st49{clip-path:url(#SVGID_4_);fill:#F6871F;}
	.st50{clip-path:url(#SVGID_4_);fill:#ED1C24;}
	.st51{clip-path:url(#SVGID_4_);fill:#F68D1E;}
	.st52{clip-path:url(#SVGID_4_);fill:#F68C1E;}
	.st53{clip-path:url(#SVGID_4_);fill:#F68B1E;}
	.st54{clip-path:url(#SVGID_4_);fill:#F68A1E;}
	.st55{clip-path:url(#SVGID_4_);fill:#F6891F;}
	.st56{clip-path:url(#SVGID_4_);fill:#F6881F;}
	.st57{clip-path:url(#SVGID_4_);fill:#F7901E;}
	.st58{clip-path:url(#SVGID_4_);fill:#F78F1E;}
	.st59{clip-path:url(#SVGID_4_);fill:#F78E1E;}
	.st60{clip-path:url(#SVGID_4_);fill:#F6861F;}
	.st61{clip-path:url(#SVGID_4_);fill:#F6851F;}
</style>
<g>
	<g>
		<g>
			<defs>
				<path id="SVGID_1_" d="M30.07,15.66v-3.53C30.07,7.1,25.55,3,20,3C14.45,3,9.93,7.1,9.93,12.13v3.53
					c-2.14,0.37-3.78,2.24-3.78,4.48v12.3c0,2.51,2.04,4.55,4.55,4.55h18.6c2.51,0,4.55-2.04,4.55-4.55V20.14
					C33.85,17.9,32.22,16.03,30.07,15.66L30.07,15.66z M11.18,12.13c0-4.34,3.96-7.87,8.82-7.87c4.86,0,8.81,3.53,8.81,7.87v3.46
					H11.18V12.13z M32.59,32.45c0,1.81-1.48,3.29-3.29,3.29H10.7c-1.81,0-3.29-1.48-3.29-3.29V20.14c0-1.81,1.48-3.29,3.29-3.29
					h18.6c1.81,0,3.29,1.48,3.29,3.29V32.45z M32.59,32.45"/>
			</defs>
			<clipPath id="SVGID_2_">
				<use xlink:href="#SVGID_1_"  style="overflow:visible;"/>
			</clipPath>
			<path class="st0" d="M32.59,32.45L32.59,32.45L32.59,32.45z"/>
			<path class="st1" d="M32.59,32.45L32.59,32.45L32.59,32.45z"/>
			<path class="st2" d="M32.59,32.45L32.59,32.45L32.59,32.45z"/>
			<rect x="7.41" y="16.85" class="st3" width="0.44" height="18.89"/>
			<rect x="7.85" y="16.85" class="st4" width="1.58" height="18.89"/>
			<rect x="9.43" y="16.85" class="st5" width="1.58" height="18.89"/>
			<rect x="11.02" y="16.85" class="st6" width="1.58" height="18.89"/>
			<rect x="12.6" y="16.85" class="st7" width="1.58" height="18.89"/>
			<rect x="14.19" y="16.85" class="st8" width="1.58" height="18.89"/>
			<rect x="15.77" y="16.85" class="st8" width="0.45" height="18.89"/>
			<rect x="16.23" y="16.85" class="st9" width="0.45" height="18.89"/>
			<rect x="16.68" y="16.85" class="st10" width="0.45" height="18.89"/>
			<rect x="17.13" y="16.85" class="st11" width="0.45" height="18.89"/>
			<rect x="17.59" y="16.85" class="st12" width="0.45" height="18.89"/>
			<rect x="18.04" y="16.85" class="st13" width="0.45" height="18.89"/>
			<rect x="18.5" y="16.85" class="st14" width="0.45" height="18.89"/>
			<rect x="18.95" y="16.85" class="st15" width="0.45" height="18.89"/>
			<rect x="19.4" y="16.85" class="st16" width="0.45" height="18.89"/>
			<rect x="19.86" y="16.85" class="st17" width="0.45" height="18.89"/>
			<rect x="20.31" y="16.85" class="st18" width="0.45" height="18.89"/>
			<rect x="20.76" y="16.85" class="st19" width="0.45" height="18.89"/>
			<rect x="21.22" y="16.85" class="st20" width="0.45" height="18.89"/>
			<rect x="21.67" y="16.85" class="st21" width="0.45" height="18.89"/>
			<rect x="22.13" y="16.85" class="st22" width="0.45" height="18.89"/>
			<rect x="22.58" y="16.85" class="st23" width="0.45" height="18.89"/>
			<rect x="23.03" y="16.85" class="st24" width="0.45" height="18.89"/>
			<rect x="23.49" y="16.85" class="st25" width="0.45" height="18.89"/>
			<rect x="23.94" y="16.85" class="st26" width="0.45" height="18.89"/>
			<rect x="24.4" y="16.85" class="st27" width="0.45" height="18.89"/>
			<rect x="24.85" y="16.85" class="st28" width="0.45" height="18.89"/>
			<rect x="25.3" y="16.85" class="st29" width="0.45" height="18.89"/>
			<rect x="25.76" y="16.85" class="st30" width="0.45" height="18.89"/>
			<rect x="26.21" y="16.85" class="st31" width="0.45" height="18.89"/>
			<rect x="26.67" y="16.85" class="st32" width="0.45" height="18.89"/>
			<rect x="27.12" y="16.85" class="st33" width="0.45" height="18.89"/>
			<rect x="27.57" y="16.85" class="st34" width="0.45" height="18.89"/>
			<rect x="28.03" y="16.85" class="st35" width="0.45" height="18.89"/>
			<rect x="28.48" y="16.85" class="st36" width="0.45" height="18.89"/>
			<rect x="28.94" y="16.85" class="st37" width="0.45" height="18.89"/>
			<rect x="29.39" y="16.85" class="st38" width="0.45" height="18.89"/>
			<rect x="29.84" y="16.85" class="st39" width="0.45" height="18.89"/>
			<rect x="30.3" y="16.85" class="st40" width="0.45" height="18.89"/>
			<rect x="30.75" y="16.85" class="st41" width="0.45" height="18.89"/>
			<rect x="31.21" y="16.85" class="st42" width="0.45" height="18.89"/>
			<rect x="31.66" y="16.85" class="st43" width="0.45" height="18.89"/>
			<rect x="32.11" y="16.85" class="st44" width="0.45" height="18.89"/>
			<rect x="32.57" y="16.85" class="st1" width="0.03" height="18.89"/>
			<rect x="11.18" y="4.26" class="st6" width="1.42" height="11.33"/>
			<rect x="12.6" y="4.26" class="st7" width="1.58" height="11.33"/>
			<rect x="14.19" y="4.26" class="st8" width="1.58" height="11.33"/>
			<rect x="15.77" y="4.26" class="st8" width="0.45" height="11.33"/>
			<rect x="16.23" y="4.26" class="st9" width="0.45" height="11.33"/>
			<rect x="16.68" y="4.26" class="st10" width="0.45" height="11.33"/>
			<rect x="17.13" y="4.26" class="st11" width="0.45" height="11.33"/>
			<rect x="17.59" y="4.26" class="st12" width="0.45" height="11.33"/>
			<rect x="18.04" y="4.26" class="st13" width="0.45" height="11.33"/>
			<rect x="18.5" y="4.26" class="st14" width="0.45" height="11.33"/>
			<rect x="18.95" y="4.26" class="st15" width="0.45" height="11.33"/>
			<rect x="19.4" y="4.26" class="st16" width="0.45" height="11.33"/>
			<rect x="19.86" y="4.26" class="st17" width="0.45" height="11.33"/>
			<rect x="20.31" y="4.26" class="st18" width="0.45" height="11.33"/>
			<rect x="20.76" y="4.26" class="st19" width="0.45" height="11.33"/>
			<rect x="21.22" y="4.26" class="st20" width="0.45" height="11.33"/>
			<rect x="21.67" y="4.26" class="st21" width="0.45" height="11.33"/>
			<rect x="22.13" y="4.26" class="st22" width="0.45" height="11.33"/>
			<rect x="22.58" y="4.26" class="st23" width="0.45" height="11.33"/>
			<rect x="23.03" y="4.26" class="st24" width="0.45" height="11.33"/>
			<rect x="23.49" y="4.26" class="st25" width="0.45" height="11.33"/>
			<rect x="23.94" y="4.26" class="st26" width="0.45" height="11.33"/>
			<rect x="24.4" y="4.26" class="st27" width="0.45" height="11.33"/>
			<rect x="24.85" y="4.26" class="st28" width="0.45" height="11.33"/>
			<rect x="25.3" y="4.26" class="st29" width="0.45" height="11.33"/>
			<rect x="25.76" y="4.26" class="st30" width="0.45" height="11.33"/>
			<rect x="26.21" y="4.26" class="st31" width="0.45" height="11.33"/>
			<rect x="26.67" y="4.26" class="st32" width="0.45" height="11.33"/>
			<rect x="27.12" y="4.26" class="st33" width="0.45" height="11.33"/>
			<rect x="27.57" y="4.26" class="st34" width="0.45" height="11.33"/>
			<rect x="28.03" y="4.26" class="st35" width="0.45" height="11.33"/>
			<rect x="28.48" y="4.26" class="st36" width="0.33" height="11.33"/>
			<rect x="6.15" y="3" class="st45" width="0.12" height="34"/>
			<rect x="6.26" y="3" class="st3" width="1.58" height="34"/>
			<rect x="7.85" y="3" class="st4" width="1.58" height="34"/>
			<rect x="9.43" y="3" class="st5" width="1.58" height="34"/>
			<rect x="11.02" y="3" class="st6" width="1.58" height="34"/>
			<rect x="12.6" y="3" class="st7" width="1.58" height="34"/>
			<rect x="14.19" y="3" class="st8" width="1.58" height="34"/>
			<rect x="15.77" y="3" class="st8" width="0.45" height="34"/>
			<rect x="16.23" y="3" class="st9" width="0.45" height="34"/>
			<rect x="16.68" y="3" class="st10" width="0.45" height="34"/>
			<rect x="17.13" y="3" class="st11" width="0.45" height="34"/>
			<rect x="17.59" y="3" class="st12" width="0.45" height="34"/>
			<rect x="18.04" y="3" class="st13" width="0.45" height="34"/>
			<rect x="18.5" y="3" class="st14" width="0.45" height="34"/>
			<rect x="18.95" y="3" class="st15" width="0.45" height="34"/>
			<rect x="19.4" y="3" class="st16" width="0.45" height="34"/>
			<rect x="19.86" y="3" class="st17" width="0.45" height="34"/>
			<rect x="20.31" y="3" class="st18" width="0.45" height="34"/>
			<rect x="20.76" y="3" class="st19" width="0.45" height="34"/>
			<rect x="21.22" y="3" class="st20" width="0.45" height="34"/>
			<rect x="21.67" y="3" class="st21" width="0.45" height="34"/>
			<rect x="22.13" y="3" class="st22" width="0.45" height="34"/>
			<rect x="22.58" y="3" class="st23" width="0.45" height="34"/>
			<rect x="23.03" y="3" class="st24" width="0.45" height="34"/>
			<rect x="23.49" y="3" class="st25" width="0.45" height="34"/>
			<rect x="23.94" y="3" class="st26" width="0.45" height="34"/>
			<rect x="24.4" y="3" class="st27" width="0.45" height="34"/>
			<rect x="24.85" y="3" class="st28" width="0.45" height="34"/>
			<rect x="25.3" y="3" class="st29" width="0.45" height="34"/>
			<rect x="25.76" y="3" class="st30" width="0.45" height="34"/>
			<rect x="26.21" y="3" class="st31" width="0.45" height="34"/>
			<rect x="26.67" y="3" class="st32" width="0.45" height="34"/>
			<rect x="27.12" y="3" class="st33" width="0.45" height="34"/>
			<rect x="27.57" y="3" class="st34" width="0.45" height="34"/>
			<rect x="28.03" y="3" class="st35" width="0.45" height="34"/>
			<rect x="28.48" y="3" class="st36" width="0.45" height="34"/>
			<rect x="28.94" y="3" class="st37" width="0.45" height="34"/>
			<rect x="29.39" y="3" class="st38" width="0.45" height="34"/>
			<rect x="29.84" y="3" class="st39" width="0.45" height="34"/>
			<rect x="30.3" y="3" class="st40" width="0.45" height="34"/>
			<rect x="30.75" y="3" class="st41" width="0.45" height="34"/>
			<rect x="31.21" y="3" class="st42" width="0.45" height="34"/>
			<rect x="31.66" y="3" class="st43" width="0.45" height="34"/>
			<rect x="32.11" y="3" class="st44" width="0.45" height="34"/>
			<rect x="32.57" y="3" class="st1" width="0.45" height="34"/>
			<rect x="33.02" y="3" class="st46" width="0.45" height="34"/>
			<rect x="33.48" y="3" class="st47" width="0.38" height="34"/>
		</g>
	</g>
	<g>
		<g>
			<defs>
				<path id="SVGID_3_" d="M20,20.63c-1.39,0-2.52,1.13-2.52,2.52v3.77c0,1.39,1.13,2.52,2.52,2.52c1.39,0,2.52-1.13,2.52-2.52
					v-3.77C22.52,21.76,21.39,20.63,20,20.63L20,20.63z M21.26,26.92c0,0.69-0.57,1.26-1.26,1.26c-0.69,0-1.26-0.57-1.26-1.26v-3.77
					c0-0.69,0.57-1.26,1.26-1.26c0.69,0,1.26,0.57,1.26,1.26V26.92z M21.26,26.92"/>
			</defs>
			<clipPath id="SVGID_4_">
				<use xlink:href="#SVGID_3_"  style="overflow:visible;"/>
			</clipPath>
			<path class="st48" d="M21.26,26.92L21.26,26.92L21.26,26.92z"/>
			<path class="st49" d="M21.26,26.92L21.26,26.92L21.26,26.92z"/>
			<path class="st50" d="M21.26,26.92L21.26,26.92L21.26,26.92z"/>
			<rect x="18.74" y="21.89" class="st51" width="0.21" height="6.3"/>
			<rect x="18.95" y="21.89" class="st52" width="0.45" height="6.3"/>
			<rect x="19.4" y="21.89" class="st53" width="0.45" height="6.3"/>
			<rect x="19.86" y="21.89" class="st54" width="0.45" height="6.3"/>
			<rect x="20.31" y="21.89" class="st55" width="0.45" height="6.3"/>
			<rect x="20.76" y="21.89" class="st56" width="0.45" height="6.3"/>
			<rect x="21.22" y="21.89" class="st49" width="0.04" height="6.3"/>
			<rect x="17.48" y="20.63" class="st57" width="0.11" height="8.82"/>
			<rect x="17.59" y="20.63" class="st58" width="0.45" height="8.82"/>
			<rect x="18.04" y="20.63" class="st59" width="0.45" height="8.82"/>
			<rect x="18.5" y="20.63" class="st51" width="0.45" height="8.82"/>
			<rect x="18.95" y="20.63" class="st52" width="0.45" height="8.82"/>
			<rect x="19.4" y="20.63" class="st53" width="0.45" height="8.82"/>
			<rect x="19.86" y="20.63" class="st54" width="0.45" height="8.82"/>
			<rect x="20.31" y="20.63" class="st55" width="0.45" height="8.82"/>
			<rect x="20.76" y="20.63" class="st56" width="0.45" height="8.82"/>
			<rect x="21.22" y="20.63" class="st49" width="0.45" height="8.82"/>
			<rect x="21.67" y="20.63" class="st60" width="0.45" height="8.82"/>
			<rect x="22.13" y="20.63" class="st61" width="0.39" height="8.82"/>
		</g>
	</g>
</g>
</svg>
