<?xml version="1.0" encoding="utf-8"?>
<!-- Generator: Adobe Illustrator 23.0.1, SVG Export Plug-In . SVG Version: 6.00 Build 0)  -->
<svg version="1.1" id="Layer_1" xmlns="http://www.w3.org/2000/svg" xmlns:xlink="http://www.w3.org/1999/xlink" x="0px" y="0px"
	 viewBox="0 0 45 38" style="enable-background:new 0 0 45 38;" xml:space="preserve">
<style type="text/css">
	.st0{fill:#565656;}
</style>
<g>
	<path class="st0" d="M34.89,3.03h3.9c1.97,0,3.58,1.6,3.58,3.58v24.82c0,1.97-1.6,3.58-3.58,3.58H6.21c-1.97,0-3.58-1.6-3.58-3.58
		V6.61c0-1.97,1.6-3.58,3.58-3.58H17.5c0.02-0.01,0.05-0.02,0.08-0.03 M6.21,4.33c-1.26,0-2.28,1.02-2.28,2.28v24.82
		c0,1.26,1.02,2.28,2.28,2.28h32.57c1.26,0,2.28-1.02,2.28-2.28v-7.7H28.99c-1.58,0-2.86-1.28-2.86-2.86v-3.7
		c0-1.58,1.28-2.86,2.86-2.86h12.08v-7.7c0-1.26-1.02-2.28-2.28-2.28L6.21,4.33z M28.99,15.6c-0.86,0-1.56,0.7-1.56,1.56v3.7
		c0,0.86,0.7,1.56,1.56,1.56h12.08V15.6H28.99z M21.78,3.03h11.77 M31.06,21.32c-1.27,0-2.31-1.03-2.31-2.31
		c0-1.27,1.03-2.31,2.31-2.31c1.27,0,2.31,1.03,2.31,2.31C33.36,20.29,32.33,21.32,31.06,21.32z M31.06,18.01
		c-0.56,0-1.01,0.45-1.01,1.01c0,0.56,0.45,1.01,1.01,1.01c0.56,0,1.01-0.45,1.01-1.01C32.07,18.46,31.61,18.01,31.06,18.01z"/>
</g>
</svg>
